<svg xmlns="http://www.w3.org/2000/svg" width="32" height="32" fill="none"><path fill="#c61e79" d="M0 4a4 4 0 0 1 4-4h24a4 4 0 0 1 4 4v24a4 4 0 0 1-4 4H4a4 4 0 0 1-4-4z"/><g fill="#fff"><path d="M19.04 12.243a3.72 3.72 0 0 0-3.084 1.627 3.731 3.731 0 0 0-6.813 2.118 3.731 3.731 0 0 0 6.813 2.12 3.731 3.731 0 0 0 6.813-2.118c0-2.053-1.665-3.747-3.729-3.747m-6.169 5.842a2.065 2.065 0 0 1-2.064-2.074 2.065 2.065 0 1 1 4.128 0c.022 1.138-.91 2.074-2.064 2.074m6.17 0a2.065 2.065 0 0 1-2.065-2.074 2.065 2.065 0 1 1 4.128 0c0 1.138-.91 2.074-2.064 2.074"/><path d="m26.474 12.31-1.62 2.965-1.642-2.988h-2.197l.91.803c.377.379.666.78.866 1.271.088.223.155.424.222.669l1.065 1.895c0 .023.044.09.066.09.156.223.378.423.71.401a.91.91 0 0 0 .733-.401l.022-.09.865-1.56v4.125h1.754v-7.18zM9.387 18.219a1.45 1.45 0 0 1-.865.067c-.577-.156-1.088-.67-1.443-1.137a2.47 2.47 0 0 0 1.753-2.364 2.47 2.47 0 0 0-2.419-2.475H3.528v7.2250000000000005h1.754V17.46c.355.602 1.353 1.962 2.751 2.341.244.067.533.09.777.09.555 0 1.132-.157 1.664-.491-.177-.134-.355-.29-.532-.446-.2-.223-.4-.468-.555-.736M6.28 15.632h-.976v-1.94h1.043c.51 0 .843.49.843.981 0 .536-.4.96-.91.96"/></g></svg>