<svg xmlns="http://www.w3.org/2000/svg" width="32" height="32" fill="none"><path fill="#fff" stroke="#d1d1d1" d="M.5 4A3.5 3.5 0 0 1 4 .5h24A3.5 3.5 0 0 1 31.5 4v24a3.5 3.5 0 0 1-3.5 3.5H4A3.5 3.5 0 0 1 .5 28z"/><path fill="#fff" d="M3 3h26v26H3z"/><g fill="#bf0000"><path d="m10.378 26.335-2.694-2.259H26.58z"/><path fill-rule="evenodd" d="M13.445 17.37v5.008h-3.068V6.23h5.07a5.576 5.576 0 0 1 5.57 5.57c0 1.868-.93 3.522-2.344 4.537l4.546 6.041h-3.843l-3.762-5.009zm2.002-8.073h-2.002v5.005h2.002a2.504 2.504 0 0 0 2.507-2.503 2.51 2.51 0 0 0-2.506-2.502" clip-rule="evenodd"/></g></svg>