<svg xmlns="http://www.w3.org/2000/svg" width="50" height="16" fill="none"><g fill="#c61e79"><path d="M31.339.3a7.54 7.54 0 0 0-6.233 3.293A7.54 7.54 0 0 0 18.874.3a7.526 7.526 0 0 0-7.543 7.543 7.526 7.526 0 0 0 7.543 7.542 7.54 7.54 0 0 0 6.232-3.293 7.54 7.54 0 0 0 6.233 3.293 7.526 7.526 0 0 0 7.542-7.542C38.881 3.699 35.517.3 31.339.3M18.874 12.056c-2.302 0-4.178-1.876-4.178-4.213 0-2.302 1.876-4.179 4.178-4.179s4.178 1.877 4.178 4.179c0 2.337-1.876 4.213-4.178 4.213m12.465 0c-2.302 0-4.179-1.876-4.179-4.213 0-2.302 1.877-4.179 4.179-4.179s4.178 1.877 4.178 4.179c0 2.337-1.877 4.213-4.179 4.213"/><path d="M11.792 12.34c-.602.248-1.169.283-1.735.106-1.169-.319-2.196-1.346-2.904-2.302 2.054-.637 3.541-2.514 3.541-4.78C10.694 2.637 8.5.442 5.807.37H0v14.553999999999998h3.541v-4.179c.708 1.24 2.727 3.966 5.595 4.745a6 6 0 0 0 1.558.213c1.133 0 2.266-.319 3.364-.992-.39-.283-.744-.566-1.062-.92a5.9 5.9 0 0 1-1.204-1.452M5.524 7.134H3.541V3.24h2.125c1.027 0 1.7.992 1.7 1.983-.036 1.062-.815 1.912-1.842 1.912M46.424.406h-.036l-3.293 5.985L39.802.406h-4.427l1.842 1.63c.743.743 1.345 1.557 1.77 2.549.177.46.319.85.425 1.345l2.16 3.825c.036.035.106.177.142.212.319.425.743.815 1.38.815h.072c.637-.036 1.098-.39 1.38-.815.036-.035.107-.177.142-.212l.036-.071 1.735-3.045v8.321H50V.442h-3.576z"/></g></svg>