<svg xmlns="http://www.w3.org/2000/svg" width="48" height="16" fill="none"><g fill-rule="evenodd" clip-rule="evenodd"><g fill="#000"><path d="M42.486 12.827h2.121v-2.036h-2.12zM43.547 1.5l-2.253 2.6h1.192v6.055h2.087V4.099H45.8zM40.233 8.549c0 2.807-1.432 4.406-3.976 4.406s-3.976-1.586-3.976-4.406v-6.03h2.008v6.017c0 1.65.722 2.599 1.968 2.599s1.968-.949 1.968-2.6V2.519h2.008zM27.6 7.603c.94 0 1.673-.725 1.673-1.656 0-.919-.719-1.618-1.673-1.618h-1.728v3.274zm.138-5.085c2.13 0 3.747 1.488 3.747 3.441 0 1.954-1.618 3.455-3.747 3.455h-1.866V12.7h-2.074V2.518zM20.972 4.992c-.522-.587-1.19-.9-1.9-.9-.788 0-1.403.508-1.403 1.174 0 .379.187.653.615.887.24.118.24.118 1.458.523 2.113.692 2.995 1.645 2.995 3.21 0 1.802-1.551 3.069-3.771 3.069-1.431 0-2.702-.601-3.651-1.737l1.257-1.357c.642.796 1.538 1.266 2.407 1.266 1.003 0 1.632-.47 1.632-1.227 0-.522-.187-.836-.642-1.084-.308-.17-.428-.208-1.27-.47-2.26-.691-3.17-1.579-3.17-3.08 0-1.723 1.511-3.002 3.53-3.002 1.23 0 2.314.43 3.197 1.28z"/></g><g fill="#bf0000"><path d="M2.89 15.5 1 13.973h13.254zM5.01 4.087h1.406c.967 0 1.759.76 1.759 1.696 0 .938-.792 1.697-1.76 1.697H5.01zm0 8.868V9.56h1.524l2.638 3.395h2.697L8.68 8.858c.993-.688 1.646-1.807 1.646-3.075 0-2.083-1.754-3.774-3.911-3.774h-3.56v10.946z"/></g></g></svg>