<svg xmlns="http://www.w3.org/2000/svg" width="76" height="16" fill="none"><path stroke="#828282" d="M.5.5h75v15H.5z"/><g fill="#828282" fill-rule="evenodd" clip-rule="evenodd"><path d="M12.507 9.273a8.7 8.7 0 0 1-4.552 2.644V10.45c2.03-.584 4.19-2.28 4.852-4.86H8.413V4.168h6.193c-.097 1.458-.51 2.716-1.12 3.764.467 1.223 1.394 2.007 2.196 2.454V12c-1.402-.474-2.505-1.515-3.175-2.727M15.783 8.207h6.884v-1.45h-6.884zM30.421 4.102a.403.403 0 0 0-.397.41c0 .22.176.412.397.412a.42.42 0 0 0 .406-.411.416.416 0 0 0-.406-.41m0 1.368c-.52 0-.927-.427-.927-.957s.406-.957.927-.957c.512 0 .926.428.926.957 0 .53-.414.957-.926.957m-2.7-.793v-.674h1.536v.702c0 2.298.37 4.34 1.685 5.598V12c-2.03-1.013-3.22-3.32-3.22-7.323M22.994 12v-1.678c1.324-1.259 1.694-3.319 1.694-5.627v-.692h1.509v.666c0 4.057-1.191 6.328-3.203 7.331M31.284 8.207h6.883v-1.45h-6.884zM42.621 10.451q.365 0 .707-.122a1.55 1.55 0 0 0 .611-.404q.269-.283.43-.737t.16-1.108q0-.598-.113-1.08a2.2 2.2 0 0 0-.37-.826 1.65 1.65 0 0 0-.68-.526q-.424-.183-1.045-.182h-1.2v4.985zm.118-6.449q.74 0 1.378.244t1.103.731q.466.489.73 1.219.261.732.262 1.717 0 .865-.214 1.596-.215.732-.648 1.263a3.06 3.06 0 0 1-1.083.837q-.65.304-1.528.304h-3.302V4.002zM53.061 4.002v1.463h-4.04v1.696h3.709v1.351H49.02v1.94h4.127v1.461h-5.81V4.002zM58.807 8.856l-.965-2.904h-.02l-.998 2.904zm-.096-4.854 2.862 7.911h-1.747l-.58-1.76h-2.861l-.601 1.76H54.09l2.894-7.911zM64.274 4.002v6.45h3.73v1.461h-5.413V4.002z"/></g></svg>