<svg width="64" height="16" viewBox="0 0 64 16" fill="none" xmlns="http://www.w3.org/2000/svg">
<rect x="0.5" y="0.5" width="63" height="15" rx="1.5" stroke="#717171"/>
<path fill-rule="evenodd" clip-rule="evenodd" d="M57.7267 5.9607L57.8152 5.97132C57.8749 5.97849 57.9358 5.98218 57.9976 5.98218C58.8274 5.98218 59.5001 5.3146 59.5001 4.49109C59.5001 3.66758 58.8274 3 57.9976 3C57.3108 3 56.7314 3.45734 56.5522 4.08205L56.5334 4.14768H49.4467V5.5826H56.0721L56.062 5.68204C55.904 7.23727 55.3342 8.51571 54.3917 9.47362C53.4644 10.4162 52.1822 11.0425 50.5927 11.321V12.7499C52.3634 12.5583 53.9747 11.9668 55.2245 10.8992C56.4966 9.81232 57.4009 8.22639 57.7141 6.04827L57.7267 5.9607ZM57.9976 3.94888C58.2993 3.94888 58.5439 4.19163 58.5439 4.49109C58.5439 4.79055 58.2993 5.03331 57.9976 5.03331C57.6958 5.03331 57.4512 4.79055 57.4512 4.49109C57.4512 4.19163 57.6958 3.94888 57.9976 3.94888ZM26.1238 5.80876V4.35501C24.7006 4.1874 23.1346 4.04968 21.7979 4.00561V5.41975C23.0825 5.46544 24.7468 5.64032 26.1238 5.80876ZM28.7901 5.51463C28.5875 7.55426 27.9632 8.9471 26.8304 9.84429C25.7012 10.7387 24.0829 11.1271 21.9229 11.1972V12.7162C24.3931 12.6746 26.4159 12.19 27.8727 11.0642C29.3268 9.94049 30.2315 8.16671 30.4426 5.51463H28.7901ZM26.0196 7.35711C24.663 7.17973 23.0602 7.03239 21.6937 6.988V8.41187C22.9772 8.44774 24.5876 8.61345 26.0196 8.79102V7.35711ZM32.2205 6.82245H37.5809V8.33283H32.3503V9.59092H37.5809V11.2998H32.2205V12.5777H39.0458V5.55444H32.2205V6.82245ZM46.7799 5.57306V5.48776H48.2852V5.58267C48.2652 7.93662 47.6995 9.58883 46.6844 10.7189C45.6886 11.8274 44.2484 12.447 42.4267 12.7227V11.4026C44.0622 11.0535 45.1486 10.4534 45.8269 9.51018C46.5136 8.55529 46.7698 7.26452 46.7799 5.57306ZM44.6815 5.41797C45.0125 6.37851 45.3507 7.81606 45.5586 8.95873H44.1387C43.9858 7.97108 43.6361 6.48324 43.3305 5.41797H44.6815ZM42.083 5.48776C42.4058 6.45056 42.77 7.95531 42.9797 9.04847H41.5607C41.4067 8.07657 41.0395 6.54741 40.724 5.48776H42.083ZM5.88994 9.89086L5.81032 9.78434L5 11.2429L5.03594 11.2858C5.85477 12.262 6.94715 12.75 8.30465 12.75C8.94192 12.75 9.5036 12.6426 9.98752 12.4251L9.98868 12.4246C10.4717 12.1988 10.8501 11.8849 11.1208 11.4823C11.4013 11.0781 11.5402 10.6049 11.5402 10.0663C11.5402 9.50151 11.3877 9.02757 11.0771 8.65072C10.8052 8.32089 10.417 8.0712 9.91819 7.8984C10.321 7.71326 10.6475 7.46326 10.8953 7.14751C11.1862 6.77695 11.331 6.34461 11.331 5.85401C11.331 5.39003 11.2 4.97974 10.9364 4.62645C10.6826 4.26603 10.3256 3.98646 9.8691 3.78666C9.41168 3.58644 8.88519 3.48753 8.29157 3.48753C7.68798 3.48753 7.13536 3.59958 6.63508 3.82496C6.14362 4.04184 5.72366 4.35856 5.37575 4.77416L5.34139 4.81521L6.0797 6.27709L6.16327 6.17054C6.73447 5.44237 7.40833 5.08664 8.187 5.08664C8.60945 5.08664 8.93226 5.18499 9.16532 5.37219L9.16784 5.37407C9.40748 5.55239 9.52664 5.78996 9.52664 6.09507C9.52664 6.42588 9.39847 6.6848 9.14108 6.87997C8.88068 7.07743 8.53896 7.17963 8.10857 7.17963H6.8861V8.75336H8.01706C8.54517 8.75336 8.9516 8.86911 9.2458 9.0912L9.24699 9.09207C9.53871 9.30443 9.6835 9.58837 9.6835 9.95211C9.6835 10.3086 9.54625 10.5937 9.27009 10.8145L9.26913 10.8152C9.00047 11.0365 8.64256 11.1509 8.187 11.1509C7.28691 11.1509 6.52203 10.7365 5.88994 9.89086ZM12.8147 11.6585C13.1549 12.0061 13.5707 12.2748 14.0605 12.465C14.5592 12.6551 15.0976 12.75 15.6739 12.75C16.4637 12.75 17.1437 12.5645 17.7091 12.1899C18.2821 11.8075 18.7187 11.2612 19.0204 10.5552C19.3309 9.84898 19.4846 9.00858 19.4846 8.03633C19.4846 6.58912 19.1867 5.46512 18.5789 4.67559C17.9771 3.88239 17.1136 3.48758 16.0007 3.48758C15.3526 3.48758 14.7798 3.61722 14.2861 3.87862C13.8018 4.13974 13.42 4.50624 13.1422 4.97593C12.8723 5.43875 12.739 5.98195 12.739 6.60263C12.739 7.17241 12.8591 7.68086 13.1018 8.12577C13.3439 8.56956 13.6766 8.91911 14.0997 9.17249L14.1015 9.17352C14.5343 9.41856 15.0288 9.54004 15.5824 9.54004C16.1166 9.54004 16.5804 9.43629 16.9703 9.22506L16.9716 9.22433C17.2611 9.06099 17.5005 8.8465 17.6896 8.58175C17.6293 9.41829 17.4391 10.0478 17.127 10.4787C16.7788 10.9596 16.2725 11.2017 15.5954 11.2017C14.7593 11.2017 14.087 10.8796 13.5714 10.2315L13.4855 10.1235L12.7749 11.6178L12.8147 11.6585ZM17.0629 7.64966L17.062 7.65056C16.7924 7.93607 16.4371 8.0805 15.9876 8.0805C15.5468 8.0805 15.1955 7.94024 14.9258 7.66283C14.6553 7.37615 14.5172 7.00408 14.5172 6.53918C14.5172 6.06517 14.6557 5.6889 14.9262 5.40243C15.1962 5.11658 15.5473 4.97249 15.9876 4.97249C16.4279 4.97249 16.7839 5.11663 17.0629 5.40333C17.3423 5.69044 17.4841 6.05827 17.4841 6.51381C17.4841 6.98715 17.3417 7.36311 17.0629 7.64966Z" fill="#717171"/>
</svg>
