<svg xmlns="http://www.w3.org/2000/svg" width="30" height="16" fill="none"><path fill="#828282" fill-rule="evenodd" d="M30 0H0v16h30zm-1 1H15v14h14zM5.243 3.273 4.74 2.1H3.227l.516 1.173zm1.652 0h1.44L7.91 2.1H6.484l.405 1.157zm3.558 2.681-.07-.037H4.457v1.23H8.24l-.493.804h-.86V9.32H1.95v1.198h4.937v2.186h-1.13v1.192h2.284v-3.378h5.004V9.32h-4.65zm.423-2.027.985-1.777.02-.035h-1.467l-.962 1.812H1.95v2.409h1.2v-1.23h8.697v1.23h1.198v-2.41zm16.43 9.87h-1.23V2.2h1.23zm-2.349-3.037h-1.245V3.15h1.245zm-2.716 2.963h-4.868v-3.548h4.868zm-1.104-1.14h-2.66V11.3h2.66zm-.779-4.66h1.586V6.786h-1.585v-.548h1.726V5.084h-1.727v-.52h-1.103v.52h-1.712v1.153h1.712v.548H17.67v1.139h1.585v.548H16.68v1.139h6.24V8.472h-2.562zm.015-5.709h-1.146v.793H16.68v1.771h1.16v-.603h3.934v.603h1.146v-1.77h-2.547z" clip-rule="evenodd"/></svg>