<svg xmlns="http://www.w3.org/2000/svg" width="71" height="16" fill="none"><g fill="#bf0000"><path d="M34.495 5.4c-.644 0-1.213.036-1.744.148h-.113v-1.26h7.316V2.952h-7.278V1.396h-1.44v1.557h-3.45v1.334h3.45v1.631l-.077.037c-2.615.927-3.904 2.966-3.904 4.93 0 2.15 1.289 3.188 2.767 3.188 1.44 0 2.54-.742 3.563-1.854 1.29-1.408 2.237-3.373 2.881-5.263l.038-.074.076.037c1.365.482 2.274 1.483 2.274 2.854 0 2.372-2.047 3.299-4.51 3.521v1.335c3.335-.26 5.989-1.409 5.989-4.856.038-2.41-1.668-4.374-5.838-4.374m-2.73 6.634c-.454.37-1.023.63-1.553.63-.834 0-1.517-.704-1.517-1.816 0-1.63.986-2.891 2.464-3.632l.114-.075v.149c.076 2.187.19 3.373.53 4.67v.037zm3.45-5.374c-.568 1.705-1.25 3.187-2.16 4.336l-.114.148-.038-.185c-.19-1.112-.227-2.483-.265-4.151v-.074h.076c.53-.111 1.099-.149 1.705-.149.228 0 .493 0 .72.038h.114zM55.685 2.916h-3.6V1.359H50.53v1.557h-8.491v1.371h8.491v1.816l-.114-.037c-.644-.296-1.326-.518-2.502-.518-2.274 0-3.677 1.149-3.677 2.742 0 1.742 1.44 2.706 3.526 2.706.91 0 1.63-.222 2.123-.482l.227-.111-.114.222c-.682 1.446-2.312 2.261-5.08 2.447v1.408c4.588-.333 7.127-1.927 7.127-6.523v-3.67h3.602V2.916zM48.066 9.81c-.758 0-1.365-.111-1.744-.408-.417-.26-.644-.667-.644-1.186 0-.926.948-1.63 2.35-1.63 1.592 0 2.54.555 2.54 1.445 0 1.038-.948 1.779-2.502 1.779M57.392 1.36v1.482l2.843 1.52v-1.52z"/><path d="M70.697 8.698V7.215l-2.843-1.52v1.52l2.767 1.483h-5.876v-.519h2.313V1.952h-2.464l.34-1.038h-1.516l-.34 1.038H61.03V8.18h2.275v.519h-5.838l2.767-1.483v-1.52l-2.843 1.52v2.817h4.739c-1.024.927-2.578 2.039-4.853 2.817l-.227.074v1.409l.455-.149c2.502-.889 4.435-2.001 5.8-3.372v3.706h1.44v-3.706c1.403 1.371 3.336 2.52 5.838 3.335l.417.149v-1.409l-.227-.074c-2.313-.741-3.867-1.853-4.89-2.817h4.814zm-8.264-5.486h3.184v1.15h-3.184zm0 3.707V5.622h3.184v1.297z"/><path d="M70.697 2.842V1.359l-2.843 1.483v1.52z"/></g><g fill="#039"><path d="M23.35 3.633 16.487 0l-6.86 3.633 6.86 3.633zM8.89 12.33 15.787 16V8.404L8.89 4.734zm8.262-3.926V16l6.898-3.67V4.734zM7.562 3.413H0v1.321h7.562zM7.562 7.486H0v1.321h7.562zM7.562 11.596H0v1.321h7.562z"/></g></svg>