<svg xmlns="http://www.w3.org/2000/svg" width="86" height="16" fill="none"><g fill="#bf0000"><path d="M33.598 7.371c.072-.174.086-.435.086-.623V1.325h-6.249v1.348h1.247l-.725 1.03a9 9 0 0 1 1.957 1.116l.827-1.116c-.624-.464-1.494-.9-1.914-1.03h3.378v3.538c0 .261-.029.29-.304.29h-1.262l.261 1.32h1.813c.188 0 .348-.03.493-.073a.73.73 0 0 0 .348-.275v1.102h-5.423v1.377h1.957c.392.884.653 1.682.928 2.682h-3.581v1.407h13.644v-1.407H37.6c.247-.754.653-1.928.9-2.682h1.913V8.575h-5.48V7.37zm3.305 2.581c-.203.884-.667 2.146-.884 2.682h-3.466a25 25 0 0 0-.899-2.682zm.537-6.25c-.522-.391-1.117-.681-1.87-1.029h3.392V6.24c0 .261-.087.261-.304.261h-1.407l.29 1.32h1.581c.899 0 1.29-.116 1.29-1.088V1.325H34.28v1.348h1.073l-.725 1.03a26 26 0 0 1 2.001 1.13zM27.754 7.3c1.276-.363 3.016-1.073 3.915-1.48l-.203-1.29c-1.059.464-2.364.986-4.031 1.363zm6.786-.189c.986-.261 2.856-.884 3.871-1.377l-.203-1.247c-1.566.609-2.929.928-4.045 1.16zM43.139 1.542v12.557H54.36V1.542zm1.594 1.494h8.019v3.973h-8.019zm8.019 5.452v4.118h-8.019V8.487zM56.464 1.339v1.378h2.291V4.08h-1.972v10.106h6.264V4.08h-2.015V2.717h2.32V1.339zm3.814 6.975c0 .594.173.754.753.754h.754v1.015H58.06V8.43l.696.84c.435-.492.826-1.261.826-2.725V5.298h.696zm0-4.234h-.697V2.717h.696zM58.754 6.4c0 .42 0 1.319-.696 1.972V5.298h.696zm3.03 1.42h-.449c-.29 0-.304-.028-.304-.347V5.298h.754zm0 5.003H58.06v-1.479h3.727zm7.99-11.484H63.83v1.436h4.48v3.509h-4.393v6.8c0 1.015.783 1.015 1.247 1.015h3.451c1.363 0 1.523-.855 1.58-3.146l-1.464-.348c0 .739-.029 1.478-.101 1.754-.088.305-.218.305-.537.305h-2.291c-.29 0-.42-.044-.42-.363V7.705h4.393zM84.68 1.566h-3.726V.87h-1.508v.696h-3.77v1.189h3.77v.856h-4.379v1.174h1.87c.102.247.29.885.349 1.204h-1.857v1.189h4.017v.855h-3.668V9.15h3.668v.884h-4.263v1.232h4.263v1.015h1.508v-1.015h4.176v-1.232h-4.176V9.15h3.625V8.033h-3.625v-.855h3.93v-1.19h-1.755c.189-.434.218-.521.45-1.203h1.638V3.611h-4.263v-.856h3.727zm-2.624 3.219a10 10 0 0 1-.391 1.204h-2.93a14 14 0 0 0-.333-1.204zM71.761 1.914c.667.638 1.755 2.422 1.856 2.581l1.29-.884a11.9 11.9 0 0 0-2.059-2.552zm0 5.945h1.218v3.843c-.493.521-1.203.927-1.479 1.058l.624 1.74c.855-.638 1.464-1.261 2.03-2.059.58.768.855.957 1.479 1.247.42.188 1.319.406 2.16.406h7.337l.334-1.406h-7.685c-.624 0-2.407 0-3.321-1.712V6.438h-2.697z"/></g><g fill="#039"><path d="M23.35 3.633 16.487 0l-6.86 3.633 6.86 3.633zM8.89 12.33 15.787 16V8.404L8.89 4.734zm8.262-3.926V16l6.898-3.67V4.734zM7.562 3.413H0v1.321h7.562zM7.562 7.486H0v1.321h7.562zM7.562 11.596H0v1.321h7.562z"/></g></svg>