<svg xmlns="http://www.w3.org/2000/svg" width="32" height="16" fill="none"><path fill="#fff" stroke="#bf0000" d="M.5.5h31v15H.5z"/><path fill="#bf0000" fill-rule="evenodd" d="M27.75 1.25A.75.75 0 0 0 28.5.5H27c0 .414.336.75.75.75m0 3a.75.75 0 1 0 0-1.5.75.75 0 0 0 0 1.5m.75 2.25a.75.75 0 1 1-1.5 0 .75.75 0 0 1 1.5 0m-.75 3.75a.75.75 0 1 0 0-1.5.75.75 0 0 0 0 1.5m.75 2.25a.75.75 0 1 1-1.5 0 .75.75 0 0 1 1.5 0m-.75 2.25a.75.75 0 0 0-.75.75h1.5a.75.75 0 0 0-.75-.75m-4.838-5.038c.347.302 1.11.917 1.423.917.405 0 .613-.427.613-.754 0-.239-.081-.377-.29-.515l-.09-.06-.052-.035-.189-.124c-.134-.089-.262-.171-.37-.24l-.258-.17c-.382-.25-.949-.779-1.284-1.181h1.92c.231 0 .601-.05.601-.603 0-.579-.45-.579-.601-.579h-2.73a6 6 0 0 1-.555-1.345h2.915c.37 0 .532-.15.532-.603 0-.553-.382-.553-.532-.553h-1.423c.07-.088.555-.893.555-1.181 0-.466-.567-.529-.682-.529-.416 0-.532.252-.671.591-.22.503-.417.842-.59 1.12h-1.62c.024-.102.244-1.006.244-1.359 0-.377-.324-.49-.625-.49-.44 0-.532.239-.578.553-.081.54-.127.817-.255 1.295h-.705a15 15 0 0 0-.52-1.069c-.29-.515-.382-.653-.683-.653-.312 0-.67.201-.67.49 0 .15.022.201.312.704q.05.085.097.178l.018.036.046.096.024.05.001.002.006.012.04.084.034.07h-1.238c-.162 0-.532 0-.532.59 0 .566.381.566.532.566h2.88a8.5 8.5 0 0 1-.613 1.345h-2.683c-.243 0-.602.05-.602.591 0 .591.451.591.602.591h1.885c-.775.943-1.25 1.244-2.128 1.785-.22.138-.382.276-.382.54 0 .428.29.767.59.767.345 0 1.205-.721 1.613-1.063l.006-.005c.07.377.335.402.52.402h1.354a2.98 2.98 0 0 1-1.215 1.936c-.52.364-.751.427-1.92.678-.381.076-.427.365-.427.553 0 .076 0 .717.6.717.29 0 1.597-.201 2.684-1.03.856-.654 1.365-1.723 1.527-2.854h1.804c.451 0 .451.264.451.465 0 .453-.057 1.069-.138 1.445-.081.365-.185.553-.463.604-.12.028-.6.014-.91.005l-.235-.005c-.15 0-.602 0-.602.628 0 .277.116.566.382.642.173.05.717.05 1.168.05 1.295 0 1.654-.202 1.885-1.597.105-.666.232-2.036.197-2.501m-10.165-1.44c-.22 0-.289-.05-.913-.528a42 42 0 0 0-1.064-.754c-.185-.126-.359-.251-.359-.553 0-.264.185-.629.544-.679.139-.012.277.013.775.34.52.34 1.087.754 1.4 1.043a.56.56 0 0 1 .184.427c0 .377-.289.704-.567.704m.486 4.45c0-.314-.185-.402-.405-.503-1.11-.477-2.347-1.018-3.47-2.137h3.366c.44 0 .59-.2.59-.64 0-.566-.405-.579-.59-.579h-4.21v-.742h.544c.972 0 1.191-.276 1.191-1.294V4.174c0-1.043-.243-1.294-1.191-1.294h-.706c.024-.063.14-.377.14-.503 0-.327-.394-.377-.637-.377-.509 0-.613.226-.763.88H6.71c-.96 0-1.052.49-1.052 1.294v2.653c0 1.03.23 1.294 1.19 1.294h.487v.742H3.09c-.394 0-.59.163-.59.641 0 .578.451.578.59.578h3.4c-1.156 1.194-2.625 1.785-3.412 2.1-.22.088-.474.2-.474.578 0 .34.22.729.567.729.486 0 2.683-1.157 4.164-2.904v2.69c0 .478.185.641.624.641.52 0 .555-.402.555-.64v-2.69c1.55 1.822 3.713 2.903 4.141 2.903.358 0 .578-.428.578-.767m-9.9-6.034c.183-.091.518-.286.814-.46.152-.088.294-.171.4-.231l.013-.007c.167-.097.292-.17.438-.17.452 0 .52.542.52.667 0 .277 0 .365-.867.918-.393.251-1.283.804-1.619.804-.358 0-.532-.44-.532-.716 0-.376.173-.465.827-.802zm1.145-3.393c-.278-.227-.845-.654-1.11-.654-.278 0-.579.314-.579.691 0 .151.07.29.162.377.06.057.26.212.444.353l.077.06.073.055a5 5 0 0 1 .17.136c.751.603.832.666 1.006.666.393 0 .601-.427.601-.716 0-.273-.078-.338-.812-.942zm6.662.44c.073-.068.26-.258.446-.448.195-.2.39-.4.456-.457.127-.114.254-.214.44-.214.277 0 .577.314.577.64 0 .177-.034.34-.751 1.082-.185.188-.544.553-.787.716a.53.53 0 0 1-.289.088c-.323 0-.6-.364-.6-.678 0-.264.15-.403.508-.73m-2.023.549c0-.214-.093-.352-.324-.352H7.127c-.243 0-.324.138-.324.352v.729h2.314zm0 2.463v-.804H6.803v.804c0 .239.093.365.324.365h1.666c.22 0 .324-.126.324-.365M19.2 5.07h.694c.07.314.174.716.451 1.345H18.68l.056-.134.003-.006.004-.01c.118-.278.304-.715.457-1.195m-1.156 2.526c-.486.73-.914 1.182-.983 1.257h4.927a9.4 9.4 0 0 1-.995-1.257z" clip-rule="evenodd"/></svg>