<svg xmlns="http://www.w3.org/2000/svg" width="28" height="28" fill="none"><path fill="#fff" d="M.318 25.236a2.446 2.446 0 0 0 2.444 2.444h22.476a2.447 2.447 0 0 0 2.444-2.444V2.762A2.447 2.447 0 0 0 25.238.318H2.762A2.45 2.45 0 0 0 .318 2.762z"/><path fill="#000" d="M23.265 20.845v4.374H22.25v-4.374h-1.454v-.947h3.921v.947zM17.04 19.898l1.892 3.258v-3.258h1.014v5.32h-1.014l-1.892-3.413v3.414h-1.014v-5.32zM14.687 25.219h-1.014v-5.32h1.014zM12.7 22.561c0 1.656-.927 2.766-2.312 2.766-1.387 0-2.314-1.108-2.314-2.766 0-1.663.927-2.771 2.326-2.771 1.373 0 2.3 1.122 2.3 2.771m-3.543 0c0 1.122.474 1.82 1.23 1.82.757 0 1.231-.704 1.231-1.826 0-1.155-.452-1.82-1.236-1.82-.773 0-1.225.67-1.225 1.826M5.656 19.898c1.041 0 1.834.777 1.834 1.798 0 1.022-.79 1.806-1.834 1.806h-.912v1.717H3.73v-5.32zm-.067 2.656c.46 0 .818-.38.818-.866 0-.48-.352-.845-.818-.845h-.846v1.71z"/><path fill="#BF0000" d="m9.71 18.12-2.054-1.725H22.07zM12.051 15.102V11.28h1.656l2.869 3.82h2.93l-3.464-4.609a4.26 4.26 0 0 0 1.788-3.46 4.253 4.253 0 0 0-4.25-4.248H9.71v12.32h2.341zm0-9.981h1.527c1.052 0 1.91.855 1.91 1.908 0 1.057-.858 1.91-1.91 1.91h-1.527z"/></svg>