<svg xmlns="http://www.w3.org/2000/svg" width="24" height="24" fill="none"><path fill="#fbf4ce" d="M12 .7C5.7.7.7 5.7.7 12c0 1.4.3 2.7.7 3.9L15.9 1.4C14.7.9 13.4.7 12 .7"/><path fill="#f0d23c" d="M15.9 1.4 1.4 15.9C3 20.3 7.1 23.3 12 23.3c6.3 0 11.3-5.1 11.3-11.3 0-4.9-3-9-7.4-10.6"/><g fill="#99740e"><path d="M12 0C5.4 0 0 5.4 0 12s5.4 12 12 12 12-5.4 12-12S18.6 0 12 0m0 22C6.5 22 2 17.5 2 12S6.5 2 12 2s10 4.5 10 10-4.5 10-10 10"/><path d="M12.1 13.8h2.4v1.6c-.5.6-1.4.9-2.3.9-2 0-3.4-1.8-3.4-4.3s1.3-4.3 3.1-4.3c1.2 0 2.2.7 2.8 2l2-1.2c-1-2-2.8-3.1-4.8-3.1-3.2 0-5.7 2.9-5.7 6.6 0 3.8 2.5 6.5 5.9 6.5 1.9 0 3.4-.7 4.7-2v-5.1H12v2.4z"/></g></svg>