<svg xmlns="http://www.w3.org/2000/svg" width="24" height="24" fill="none"><path fill="gray" d="M12 .7C5.7.7.7 5.7.7 12c0 1.4.3 2.7.7 3.9L15.9 1.4C14.7.9 13.4.7 12 .7"/><path fill="#262626" d="M15.9 1.4 1.4 15.9C3 20.3 7.1 23.3 12 23.3c6.3 0 11.3-5.1 11.3-11.3 0-4.9-3-9-7.4-10.6"/><path fill="#000" d="M12 2c5.5 0 10 4.5 10 10s-4.5 10-10 10S2 17.5 2 12 6.5 2 12 2m0-2C5.4 0 0 5.4 0 12s5.4 12 12 12 12-5.4 12-12S18.6 0 12 0"/><path fill="#fff" d="M12.4 5.7c3.3 0 5.7 2.6 5.7 6.3s-2.3 6.3-5.7 6.3H8.3V5.7zm-1.7 10.4h1.7c1.9 0 3.1-1.6 3.1-4.1 0-2.4-1.3-4-3.1-4h-1.7z"/></svg>