<svg xmlns="http://www.w3.org/2000/svg" width="24" height="24" fill="none"><path fill="#99b7dd" d="M12 .7C5.7.7.7 5.7.7 12c0 1.4.3 2.7.7 3.9L15.9 1.4C14.7.9 13.4.7 12 .7"/><path fill="#004baa" d="M15.9 1.4 1.4 15.9C3 20.3 7.1 23.3 12 23.3c6.3 0 11.3-5.1 11.3-11.3 0-4.9-3-9-7.4-10.6"/><path fill="#2f8cc2" d="M12 1.3c5.9 0 10.7 4.8 10.7 10.7S17.9 22.7 12 22.7 1.3 17.9 1.3 12 6.1 1.3 12 1.3M12 0C5.4 0 0 5.4 0 12s5.4 12 12 12 12-5.4 12-12S18.6 0 12 0"/><path fill="#fff" d="M12.9 5.7c2.5 0 4.3 1.8 4.3 4.3 0 2.4-1.9 4.3-4.3 4.3h-2.2v4.1H8.3V5.7zm-.2 6.3c1.1 0 1.9-.9 1.9-2s-.8-2-1.9-2h-2v4z"/><path fill="#2382b4" d="M12 2c5.5 0 10 4.5 10 10s-4.5 10-10 10S2 17.5 2 12 6.5 2 12 2m0-2C5.4 0 0 5.4 0 12s5.4 12 12 12 12-5.4 12-12S18.6 0 12 0"/></svg>