<svg xmlns="http://www.w3.org/2000/svg" width="24" height="24" fill="none"><path fill="#efefef" d="M12 .7C5.7.7.7 5.7.7 12c0 1.4.3 2.7.7 3.9L15.9 1.4C14.7.9 13.4.7 12 .7"/><path fill="#c9c9c9" d="M15.9 1.4 1.4 15.9C3 20.3 7.1 23.3 12 23.3c6.3 0 11.3-5.1 11.3-11.3 0-4.9-3-9-7.4-10.6"/><g fill="#646464"><path d="M12 0C5.4 0 0 5.4 0 12s5.4 12 12 12 12-5.4 12-12S18.6 0 12 0m0 22C6.5 22 2 17.5 2 12S6.5 2 12 2s10 4.5 10 10-4.5 10-10 10"/><path d="M12.9 10.9c-1.5-.5-1.5-.5-1.7-.6-.5-.3-.7-.6-.7-1.1 0-.8.7-1.4 1.7-1.4.8 0 1.6.4 2.3 1.1L16 7.1c-1.1-1-2.4-1.6-3.8-1.6C9.8 5.5 8 7.1 8 9.2c0 1.8 1.1 2.9 3.8 3.8 1 .3 1.2.4 1.5.6.5.3.8.7.8 1.3 0 .9-.8 1.5-2 1.5-1 0-2.1-.6-2.9-1.6l-1.5 1.7c1.1 1.4 2.7 2.1 4.4 2.1 2.7 0 4.5-1.6 4.5-3.8-.1-1.9-1.2-3.1-3.7-3.9"/></g></svg>