<svg xmlns="http://www.w3.org/2000/svg" width="36" height="48" fill="none"><path fill="#fbf4ce" d="M18 12C8.6 12 1 19.6 1 29c0 2.1.4 4.1 1.1 5.9l21.8-21.8c-1.8-.7-3.8-1.1-5.9-1.1"/><path fill="#f0d23c" d="M23.9 13.1 2.1 34.9C4.5 41.4 10.7 46 18 46c9.4 0 17-7.6 17-17 0-7.3-4.6-13.5-11.1-15.9"/><path fill="#99740e" d="m26.1 12.9 7.3-3.7c.4-.1.6-.4.6-.8V0H24v12c-1.9-.7-3.9-1-6-1s-4.1.4-6 1V0H2v8.4q0 .6.6.9L9.9 13C4 15.9 0 22 0 29c0 9.9 8.1 18 18 18s18-8.1 18-18c0-7-4-13.1-9.9-16.1M18 44C9.7 44 3 37.3 3 29s6.7-15 15-15 15 6.7 15 15-6.7 15-15 15"/><path fill="#99740e" d="M18.1 31.7h3.7v2.4c-.8.9-2.1 1.4-3.5 1.4-3 0-5.1-2.7-5.1-6.5 0-3.7 2-6.5 4.7-6.5 1.8 0 3.2 1.1 4.1 3l3.1-1.8c-1.5-2.9-4.1-4.6-7.2-4.6-4.8 0-8.5 4.3-8.5 9.9 0 5.7 3.7 9.8 8.9 9.8 2.8 0 5.1-1 7-2.9v-7.6h-7.2z"/><path fill="#ad903e" d="M18 11c2.1 0 4.1.4 6 1V0H12v12c1.9-.6 3.9-1 6-1"/></svg>