<svg xmlns="http://www.w3.org/2000/svg" width="36" height="48" fill="none"><path fill="#99b7dd" d="M18 12C8.6 12 1 19.6 1 29c0 2.1.4 4.1 1.1 5.9l21.8-21.8c-1.8-.7-3.8-1.1-5.9-1.1"/><path fill="#004baa" d="M23.9 13.1 2.1 34.9C4.5 41.4 10.7 46 18 46c9.4 0 17-7.6 17-17 0-7.3-4.6-13.5-11.1-15.9"/><path fill="#2f8cc2" d="M18 13c8.8 0 16 7.2 16 16s-7.2 16-16 16S2 37.8 2 29s7.2-16 16-16m0-2C8.1 11 0 19.1 0 29s8.1 18 18 18 18-8.1 18-18-8.1-18-18-18"/><path fill="#2382b4" d="m26.1 12.9 7.3-3.7c.4-.1.6-.4.6-.8V0H24v12c-1.9-.7-3.9-1-6-1s-4.1.4-6 1V0H2v8.4q0 .6.6.9L9.9 13C4 15.9 0 22 0 29c0 9.9 8.1 18 18 18s18-8.1 18-18c0-7-4-13.1-9.9-16.1M18 44C9.7 44 3 37.3 3 29s6.7-15 15-15 15 6.7 15 15-6.7 15-15 15"/><path fill="#fff" d="M19.3 19.6c3.7 0 6.5 2.8 6.5 6.4s-2.8 6.4-6.5 6.4h-3.2v6.1h-3.6V19.6zm-.2 9.4c1.6 0 2.9-1.3 2.9-3.1 0-1.7-1.2-3-2.9-3h-3V29z"/><path fill="#4f9bc3" d="M18 11c2.1 0 4.1.4 6 1V0H12v12c1.9-.6 3.9-1 6-1"/></svg>