<svg xmlns="http://www.w3.org/2000/svg" width="24" height="24" fill="none"><circle cx="12" cy="12" r="12" fill="#665CAC"/><path fill="#fff" d="M17.885 5.86c-.4-.365-2.009-1.532-5.593-1.549 0 0-4.229-.254-6.29 1.633-1.147 1.146-1.551 2.821-1.592 4.9-.044 2.08-.099 5.972 3.663 7.029h.002l-.002 1.611s-.024.653.407.785c.52.161.825-.334 1.323-.87.271-.292.649-.724.933-1.053 2.571.216 4.55-.279 4.775-.35.52-.169 3.458-.546 3.935-4.438.493-4.012-.24-6.552-1.561-7.698m.435 7.41c-.404 3.251-2.788 3.457-3.226 3.597-.187.06-1.924.492-4.108.348 0 0-1.628 1.96-2.136 2.47-.08.08-.173.114-.236.097-.086-.022-.11-.125-.11-.276l.014-2.678q-.003 0 0 0c-3.18-.88-2.995-4.197-2.959-5.933s.364-3.157 1.333-4.113c1.744-1.575 5.335-1.34 5.335-1.34 3.033.015 4.486.925 4.823 1.23 1.116.958 1.686 3.246 1.27 6.598"/><path fill="#fff" fill-rule="evenodd" d="M12.352 9.494a.203.203 0 0 1 .213-.191c.419.022.767.148 1.015.404.247.255.368.611.389 1.04a.202.202 0 0 1-.405.019c-.018-.367-.118-.616-.275-.777-.156-.161-.395-.263-.746-.282a.2.2 0 0 1-.191-.213" clip-rule="evenodd"/><path fill="#fff" fill-rule="evenodd" d="M12.042 8.405a.203.203 0 0 1 .216-.187c.854.06 1.539.353 2.038.896.496.54.73 1.209.712 1.995a.203.203 0 0 1-.405-.01c.016-.692-.188-1.257-.606-1.712-.415-.45-.995-.71-1.767-.765a.2.2 0 0 1-.188-.217" clip-rule="evenodd"/><path fill="#fff" fill-rule="evenodd" d="M11.685 7.367c0-.112.092-.202.204-.201 1.177.007 2.174.4 2.972 1.176.804.785 1.203 1.85 1.213 3.176a.203.203 0 0 1-.406.003c-.009-1.243-.38-2.195-1.09-2.89-.718-.697-1.612-1.054-2.691-1.06a.203.203 0 0 1-.202-.204" clip-rule="evenodd"/><path fill="#fff" d="M12.595 13.467s.286.024.438-.166l.298-.374c.145-.188.493-.305.835-.116.19.108.531.317.743.473.226.166.69.553.69.553.222.184.272.458.123.746q-.001.005-.002.005-.23.409-.623.766l-.005.005q-.322.267-.633.305-.036.008-.091.005a.9.9 0 0 1-.27-.041l-.007-.01c-.32-.089-.851-.314-1.739-.802a10 10 0 0 1-1.46-.963 8 8 0 0 1-.678-.602l-.022-.022-.021-.021-.022-.022a8 8 0 0 1-.582-.656 10.4 10.4 0 0 1-.965-1.457c-.488-.886-.714-1.417-.803-1.736l-.01-.007a.8.8 0 0 1-.04-.27.4.4 0 0 1 .004-.09q.038-.31.306-.632l.004-.005q.358-.391.768-.622l.005-.002c.288-.149.562-.098.748.123.002.002.387.463.553.689.156.213.368.552.474.742.19.34.072.689-.116.833l-.375.297c-.19.154-.166.438-.166.438s.558 2.105 2.641 2.636"/></svg>