<svg xmlns="http://www.w3.org/2000/svg" width="32" height="32" fill="none"><g fill-rule="evenodd" clip-rule="evenodd"><path fill="#fff" d="M25.478 0H6.522A6.52 6.52 0 0 0 0 6.522v18.956A6.52 6.52 0 0 0 6.522 32h18.956A6.52 6.52 0 0 0 32 25.478V6.522A6.52 6.52 0 0 0 25.478 0"/><path fill="#00a4de" d="M23.639 20.754a1.613 1.613 0 1 1-3.226 0 1.613 1.613 0 0 1 3.226 0m-5.73-.235a2.94 2.94 0 0 1-1.226 1.199q-.645.346-1.601.498-.958.146-3.125.146H8.362V9.638h3.489c1.433 0 2.436.04 3.007.135s1.058.257 1.467.481c.448.24.82.602 1.075 1.042.252.466.379.988.37 1.518 0 .722-.18 1.288-.55 1.719s-.951.75-1.757.969q1.355.1 2.116.952.764.848.762 2.268-.002 1.024-.431 1.797m-3.874-5.79c.313-.19.476-.499.476-.975s-.146-.812-.443-1.008q-.442-.29-1.736-.29h-.745v2.553h.69c.856 0 1.444-.09 1.758-.28m.548 2.878c-.308-.213-.89-.319-1.73-.319h-1.266v2.772h1.216c.817 0 1.4-.1 1.741-.308l-.005.006c.347-.208.515-.493.515-1.03s-.163-.908-.47-1.12m6.043.517h2.8V9.638h-2.8zM24.294 2H7.707A5.706 5.706 0 0 0 2 7.706v16.588A5.706 5.706 0 0 0 7.707 30h16.587A5.706 5.706 0 0 0 30 24.294V7.706A5.706 5.706 0 0 0 24.294 2"/></g></svg>