<svg xmlns="http://www.w3.org/2000/svg" width="32" height="32" fill="none"><g fill-rule="evenodd" clip-rule="evenodd"><path fill="#fff" d="M2 2h28v28H2z"/><path fill="#c61e79" d="M22.118 25.442a7.8 7.8 0 0 1-1.921-.243c-3.52-.947-6.019-4.312-6.889-5.836v5.15H8.936V6.56l7.183.005c3.311.088 6.035 2.811 6.035 6.168a6.16 6.16 0 0 1-4.353 5.9c.877 1.166 2.149 2.459 3.578 2.838.699.185 1.405.136 2.135-.15.406.644.887 1.24 1.432 1.783.415.413.846.791 1.318 1.123-1.338.803-2.763 1.216-4.146 1.216m-6.193-15.35h-2.617v4.807h2.446c1.268 0 2.258-1.075 2.258-2.343 0-1.25-.83-2.464-2.087-2.464M2 30h28V2H2z"/></g></svg>