<svg xmlns="http://www.w3.org/2000/svg" xml:space="preserve" width="32" height="32"><style>.st0{fill:#06c755}</style><g id="LINE_LOGO_1_"><path d="M24.79 32H7.21C3.23 32 0 28.77 0 24.79V7.21C0 3.23 3.23 0 7.21 0h17.57C28.77 0 32 3.23 32 7.21v17.57c0 3.99-3.23 7.22-7.21 7.22" class="st0"/><path d="M26.67 14.49c0-4.77-4.79-8.66-10.67-8.66S5.33 9.71 5.33 14.49c0 4.28 3.8 7.86 8.92 8.54.35.08.82.23.94.53.11.27.07.69.03.96 0 0-.13.75-.15.91-.05.27-.21 1.05.92.58 1.14-.48 6.14-3.62 8.38-6.19 1.55-1.7 2.3-3.42 2.3-5.33" style="fill:#fff"/><path d="M23.12 17.25h-2.99a.2.2 0 0 1-.2-.2V12.4c0-.11.09-.2.2-.2h2.99c.11 0 .2.09.2.2v.76a.2.2 0 0 1-.2.2h-2.04v.79h2.04c.11 0 .2.09.2.2v.76a.2.2 0 0 1-.2.2h-2.04v.79h2.04c.11 0 .2.09.2.2v.76c0 .1-.09.19-.2.19m-11.09 0a.2.2 0 0 0 .2-.2v-.76a.2.2 0 0 0-.2-.2H9.99v-3.7a.2.2 0 0 0-.2-.2h-.76a.2.2 0 0 0-.2.2v4.65c0 .11.09.2.2.2h3zm1.8-5.06h-.76a.2.2 0 0 0-.2.2v4.66c0 .11.09.2.2.2h.76a.2.2 0 0 0 .2-.2v-4.66c.01-.11-.08-.2-.2-.2m5.15 0h-.76a.2.2 0 0 0-.2.2v2.77l-2.13-2.88c0-.01-.01-.01-.02-.02l-.01-.01-.01-.01h-.01l-.01-.01h-.01s-.01 0-.01-.01h-.01s-.01 0-.01-.01h-.83a.2.2 0 0 0-.2.2v4.66c0 .11.09.2.2.2h.76a.2.2 0 0 0 .2-.2v-2.76l2.13 2.88c.01.02.03.04.05.05l.01.01h.05c.02 0 .03.01.05.01h.75a.2.2 0 0 0 .2-.2V12.4c.03-.12-.06-.21-.18-.21" class="st0"/></g></svg>