<svg xmlns="http://www.w3.org/2000/svg" width="24" height="24" fill="none"><circle cx="12" cy="12" r="12" fill="#00B900"/><path fill="#fff" d="M19.5 11.356C19.5 8.127 16.135 5.5 12 5.5s-7.5 2.627-7.5 5.856c0 2.895 2.668 5.32 6.273 5.777.243.051.576.155.66.355.076.182.05.467.024.652l-.106.618c-.033.182-.151.713.649.39.8-.324 4.32-2.448 5.893-4.19 1.085-1.146 1.607-2.309 1.607-3.602"/><path fill="#00B900" d="M10.638 9.875h-.401c-.062 0-.112.069-.112.154v3.442c0 .085.05.154.112.154h.401c.062 0 .112-.069.112-.154V10.03c0-.085-.05-.154-.112-.154M13.76 9.877h-.422c-.065 0-.118.068-.118.153v2.044l-1.204-2.129-.01-.016-.001-.002q-.003-.005-.007-.009l-.003-.001-.007-.008-.002-.003-.006-.006-.004-.003-.007-.006-.004-.002-.007-.003-.004-.002-.007-.004-.004-.001-.007-.002h-.006q-.002 0-.005-.002h-.433c-.065 0-.117.069-.117.154v3.44c0 .086.053.154.117.154h.423c.065 0 .117-.068.117-.153v-2.043l1.206 2.133a.14.14 0 0 0 .032.04l.007.005.003.002.005.004.006.003.004.002.008.004h.002q.014.005.03.005h.422c.065 0 .118-.069.118-.154v-3.44c.003-.086-.05-.154-.115-.154M9.348 12.763H7.854v-2.734a.153.153 0 0 0-.153-.154h-.549a.153.153 0 0 0-.152.154v3.442q.001.065.043.107l.002.002.002.002a.15.15 0 0 0 .105.043h2.196a.153.153 0 0 0 .152-.154v-.555a.153.153 0 0 0-.152-.154M16.848 10.736a.153.153 0 0 0 .152-.154v-.553a.153.153 0 0 0-.152-.154h-2.196a.15.15 0 0 0-.105.043l-.002.002-.002.004a.15.15 0 0 0-.043.107v3.44q.001.065.043.107l.002.002.002.002a.15.15 0 0 0 .105.043h2.194a.153.153 0 0 0 .152-.154v-.555a.153.153 0 0 0-.152-.154h-1.493v-.582h1.493a.153.153 0 0 0 .152-.153v-.554a.153.153 0 0 0-.152-.153h-1.493v-.582h1.495z"/></svg>