<svg xmlns="http://www.w3.org/2000/svg" width="32" height="32" fill="none"><g fill="#665cac"><path d="M19.486 13.317a.4.4 0 0 1-.399-.385c-.066-1.375-.706-2.047-2.014-2.118a.403.403 0 0 1-.379-.425.4.4 0 0 1 .421-.383c1.727.093 2.686 1.091 2.771 2.887a.403.403 0 0 1-.4.424"/><path d="M21.529 14.013h.009a.4.4 0 0 0 .4-.395c.035-1.58-.438-2.923-1.406-3.99s-2.321-1.67-4.022-1.792a.4.4 0 0 0-.428.375.403.403 0 0 0 .371.432c1.511.109 2.652.61 3.489 1.532.836.92 1.227 2.04 1.196 3.424a.403.403 0 0 0 .39.414"/><path d="M23.64 14.844a.4.4 0 0 1-.4-.402c-.017-2.439-.742-4.383-2.153-5.779-1.415-1.394-3.202-2.108-5.31-2.122a.403.403 0 0 1-.398-.407.4.4 0 0 1 .4-.403h.002c2.324.015 4.297.807 5.865 2.353 1.57 1.553 2.375 3.69 2.395 6.352a.403.403 0 0 1-.397.408zM18.039 18.002c-.3.38-.864.332-.864.332-4.112-1.062-5.213-5.273-5.213-5.273s-.048-.567.328-.874l.74-.595c.37-.289.603-.985.228-1.667a18 18 0 0 0-.935-1.484 40 40 0 0 0-1.092-1.378c-.366-.442-.907-.543-1.477-.245 0 0-.004.005-.01.005A6 6 0 0 0 8.23 8.067l-.01.01c-.35.427-.555.85-.602 1.262a.7.7 0 0 0-.01.183q-.005.272.081.538l.02.014c.175.639.621 1.7 1.585 3.472a21 21 0 0 0 1.904 2.915q.496.64 1.148 1.31l.043.044.043.043.085.087c.442.442.874.826 1.296 1.162a20 20 0 0 0 2.882 1.926c1.752.974 2.801 1.426 3.433 1.603l.014.02c.175.057.351.081.532.081q.107.006.18-.01c.408-.047.826-.254 1.248-.61l.01-.009c.517-.475.926-.989 1.23-1.532 0 0 .004-.004.004-.01.295-.575.195-1.123-.242-1.493 0 0-.916-.773-1.362-1.104a18 18 0 0 0-1.467-.946c-.674-.38-1.363-.144-1.648.23z"/><path fill-rule="evenodd" d="M27.614 3.12C26.826 2.39 23.65.057 16.576.023c0 0-8.346-.51-12.414 3.265C1.897 5.58 1.1 8.931 1.019 13.09c-.085 4.158-.195 11.943 7.23 14.056h.005l-.005 3.222s-.047 1.306.803 1.57c.856.269 1.418-.377 2.152-1.22q.217-.252.459-.518a89 89 0 0 0 1.842-2.108c5.075.432 8.982-.557 9.424-.701q.138-.044.381-.105c1.64-.422 6.53-1.68 7.385-8.77.974-8.024-.474-13.105-3.08-15.396m.86 14.82c-.72 5.86-4.612 6.774-6.006 7.102a5 5 0 0 0-.36.092c-.37.12-3.799.984-8.11.696 0 0-3.213 3.919-4.215 4.941-.157.159-.342.226-.465.192-.171-.043-.219-.25-.219-.552.005-.432.029-5.354.029-5.354-6.07-1.704-5.928-7.962-5.847-11.513l.007-.353c.072-3.472.717-6.315 2.63-8.227 3.442-3.15 10.53-2.68 10.53-2.68 5.987.03 8.854 1.85 9.519 2.46 2.203 1.916 3.328 6.492 2.507 13.196" clip-rule="evenodd"/></g></svg>