<svg xmlns="http://www.w3.org/2000/svg" width="32" height="32" fill="none"><path fill="#333" fill-rule="evenodd" d="m9.724 6.224 4.133 4.461H5.38zm10.006-.208L16 10.043l-3.73-4.027zm6.889 4.67H18.14L22.28 6.22zm-3.85 2.012h4.057l-7.669 9.031zm-13.538 0 3.607 9.02-7.665-9.02zm11.408-.02-4.64 11.543-4.604-11.543zm9.29-.628c.03-.08.04-.162.05-.245.004-.04.021-.073.021-.112q0-.01-.003-.018a1 1 0 0 0-.075-.372c-.009-.022-.026-.036-.036-.057a1 1 0 0 0-.169-.256L23.22 4.308a1 1 0 0 0-.716-.303h-.433c-.011 0-.023-.005-.036-.005H9.967c-.012 0-.024.005-.036.005h-.426a1 1 0 0 0-.717.303L2.284 10.99a1 1 0 0 0-.282.691L2 11.693c0 .025.014.048.015.074.008.098.022.195.058.287.02.049.05.089.076.133.03.054.05.11.09.158l13.002 15.3a.996.996 0 0 0 1.526 0l12.995-15.3c.038-.045.054-.098.083-.148.03-.048.062-.093.083-.147" clip-rule="evenodd"/></svg>