<svg xmlns="http://www.w3.org/2000/svg" width="32" height="32" fill="none"><path fill="#333" fill-rule="evenodd" d="M7.757 27.963v-5.622a9.49 9.49 0 0 0 8.244 4.795c3.511 0 6.568-1.91 8.21-4.742v5.569zm15.7-10.319A7.47 7.47 0 0 1 16 25.101a7.47 7.47 0 0 1-7.459-7.457 7.467 7.467 0 0 1 7.46-7.454 7.46 7.46 0 0 1 7.451 7.454zm.754-13.607v8.859c-1.642-2.833-4.699-4.743-8.21-4.743a9.49 9.49 0 0 0-8.244 4.795V4.037zm1.74-1.74A1.02 1.02 0 0 0 25.23 2H6.742A1.02 1.02 0 0 0 5.72 3.018v25.964A1.02 1.02 0 0 0 6.74 30h18.492a1.02 1.02 0 0 0 1.018-1.018V3.018c0-.27-.11-.53-.3-.72m-9.948 10.677a4.675 4.675 0 0 1 4.572 5.609c-.37.183-.83.307-1.409.307-2.334 0-2.181-2.847-5.44-2.847-.965 0-1.711.258-2.271.566a4.674 4.674 0 0 1 4.548-3.635m0-1.528a6.198 6.198 0 0 1 0 12.396 6.198 6.198 0 1 1 0-12.396m3.496-5.178a1.249 1.249 0 1 1-2.497 0 1.249 1.249 0 0 1 2.497 0m3.462 0a1.25 1.25 0 0 1-2.498 0 1.25 1.25 0 0 1 2.498 0" clip-rule="evenodd"/></svg>