<svg xmlns="http://www.w3.org/2000/svg" width="32" height="32" fill="none"><path fill="#333" fill-rule="evenodd" d="m15.209 8.276-2.533 5.262a1.01 1.01 0 0 0 .056.982c.184.298.51.475.86.475h6.532V7.7h-3.999c-.39 0-.748.222-.916.576m9.898.309A1.016 1.016 0 0 0 24.1 7.7h-1.937v7.295h2.628c.295 0 .57-.124.765-.346s.284-.51.245-.803zm2.856 13.36h-1.5a4.456 4.456 0 0 0-4.353-3.52 4.454 4.454 0 0 0-4.355 3.52H13.99a4.456 4.456 0 0 0-4.352-3.52 4.455 4.455 0 0 0-4.354 3.52H4.038v-6.657h5.131c.37 0 .714-.205.892-.527l4.8-8.724h11.804l1.298 8.311zm-5.853 3.353a2.426 2.426 0 0 1-2.422-2.419 2.43 2.43 0 0 1 2.422-2.42 2.426 2.426 0 0 1 2.417 2.42 2.423 2.423 0 0 1-2.417 2.419m-12.472 0a2.426 2.426 0 0 1-2.421-2.419 2.427 2.427 0 0 1 2.421-2.42 2.427 2.427 0 0 1 2.417 2.42 2.426 2.426 0 0 1-2.417 2.419m20.349-11.185-1.445-9.25A1.02 1.02 0 0 0 27.538 4H14.26c-.37 0-.715.206-.892.53l-4.802 8.722H3.02A1.02 1.02 0 0 0 2 14.27v8.696a1.025 1.025 0 0 0 1.02 1.018h2.317a4.444 4.444 0 0 0 4.301 3.35c2.076 0 3.805-1.427 4.299-3.35h3.871a4.44 4.44 0 0 0 4.302 3.35c2.076 0 3.805-1.427 4.3-3.35h2.572c.27 0 .527-.107.718-.3.192-.192.3-.449.3-.718V14.27z" clip-rule="evenodd"/></svg>