<svg xmlns="http://www.w3.org/2000/svg" width="32" height="32" fill="none"><path fill="#333" fill-rule="evenodd" d="M15.302 15.995c-.501.366-.758 1.15-.566 1.74l.565 1.739a4.82 4.82 0 0 0 1.392-3.385c-.001-.352-.043-.692-.114-1.022zM11.86 22.96a6.87 6.87 0 0 1-6.865-6.871 6.866 6.866 0 1 1 13.732 0 6.875 6.875 0 0 1-6.867 6.87m.002-16.733C6.415 6.227 2 10.642 2 16.09c0 5.448 4.415 9.863 9.862 9.863s9.86-4.415 9.86-9.863-4.414-9.862-9.86-9.862m-4.721 8.84c-.07.33-.112.67-.112 1.022a4.82 4.82 0 0 0 1.39 3.385l.566-1.739c.19-.59-.064-1.374-.567-1.74zm3.509-2.45.413-1.28a4.8 4.8 0 0 0-3.375 2.354h1.48c.622 0 1.288-.484 1.482-1.074m.296 6.544-1.502 1.09c.713.416 1.532.67 2.416.67a4.76 4.76 0 0 0 2.415-.672l-1.5-1.088c-.502-.366-1.326-.366-1.83 0m1.71-7.824a4.8 4.8 0 0 1 3.375 2.354h-1.479c-.622 0-1.287-.484-1.48-1.074zm1.11 4.752a1.904 1.904 0 0 1-1.904 1.906 1.906 1.906 0 1 1 1.905-1.906M28.232 6.042v19.916A2.174 2.174 0 0 0 30 23.826V8.176a2.176 2.176 0 0 0-1.769-2.134m-5.55 2.135v15.65c0 1.058.764 1.94 1.77 2.13V6.043a2.176 2.176 0 0 0-1.77 2.135M25.469 26h1.745V6h-1.745z" clip-rule="evenodd"/></svg>