<svg xmlns="http://www.w3.org/2000/svg" width="32" height="32" fill="none"><path fill="#333" fill-rule="evenodd" d="M9.392 11.182h13.222c.27 0 .524-.108.714-.3a1 1 0 0 0 .297-.713V7.935a1 1 0 0 0-.297-.716 1 1 0 0 0-.714-.296h-3.742v-3.91c0-.269-.11-.53-.298-.718A1.02 1.02 0 0 0 17.86 2h-3.71a1.015 1.015 0 0 0-1.015 1.013v3.91H9.392c-.265 0-.526.108-.715.296a1.02 1.02 0 0 0-.297.716v2.234c0 .266.11.527.297.716.189.188.45.297.715.297M21.6 27.974H10.406v-3.34c.047.005.088.027.136.027h4.565c.559 0 1.015-.453 1.015-1.012 0-.562-.456-1.014-1.015-1.014h-4.564c-.05 0-.09.02-.137.028v-2.31c.047.01.088.03.136.03h4.565c.559 0 1.015-.453 1.015-1.014 0-.559-.456-1.011-1.015-1.011h-4.564c-.05 0-.09.02-.137.027v-3.192H21.6zm1.729-14.51a1.01 1.01 0 0 0-.715-.299H9.393A1.02 1.02 0 0 0 8.38 14.18v14.807c0 .269.11.526.298.717.188.188.449.296.715.296h13.221c.266 0 .527-.108.715-.296.188-.19.298-.448.298-.717V14.18c0-.266-.11-.527-.298-.716" clip-rule="evenodd"/></svg>