<svg xmlns="http://www.w3.org/2000/svg" width="32" height="32" fill="none"><path fill="#333" fill-rule="evenodd" d="M12.07 27.971h7.857v-7.308H12.07zm1.055-9.335h5.75v-5.318h-5.75zm8.572.298a1.04 1.04 0 0 0-.732-.298h-.018l-.002-6.333c0-.56-.462-1.015-1.035-1.015h-.238l.003-5.72a.51.51 0 0 0-.288-.456l-6.313-3.059a.53.53 0 0 0-.504.022.51.51 0 0 0-.245.432v8.78h-.236c-.274 0-.54.11-.735.3a1 1 0 0 0-.302.716v6.333h-.017c-.273 0-.54.11-.732.298-.193.188-.303.449-.303.716v9.336c0 .268.107.524.303.716s.455.298.732.298h9.93c.276 0 .536-.106.732-.298s.303-.448.303-.716V19.65c0-.27-.108-.525-.303-.717" clip-rule="evenodd"/></svg>