<svg xmlns="http://www.w3.org/2000/svg" width="32" height="32" fill="none"><path fill="#333" fill-rule="evenodd" d="M4 21.401h24V20.4H4zm6.937-15.14h10.125c1.018 0 1.846.793 1.923 1.794H9.015c.076-1.001.904-1.794 1.922-1.794m-2.542 3.795h15.21l3.572 3.338H4.822zM4 18.4h24v-3.004H4zm25.68-5.405-4.75-4.441A1 1 0 0 0 25 8.2a3.944 3.944 0 0 0-3.938-3.941H10.937A3.944 3.944 0 0 0 7 8.201c0 .125.03.242.072.353l-4.753 4.441a1 1 0 0 0-.319.732v8.675a1 1 0 0 0 1 1h1.085v3.337a1 1 0 1 0 1.999 0v-3.336h19.833v3.336a1 1 0 1 0 2 0v-3.336H29a1 1 0 0 0 1-1.001v-8.675a1 1 0 0 0-.32-.732" clip-rule="evenodd"/></svg>