<svg xmlns="http://www.w3.org/2000/svg" width="32" height="32" fill="none"><path fill="#333" fill-rule="evenodd" d="M27.963 24.293 16 26.973l-11.965-2.68V7.46l1.686.377v15.085c0 .441.29.832.713.966l9.26 2.91q.13.036.267.039c.013 0 .026.008.04.008.013 0 .025-.008.04-.008a1 1 0 0 0 .266-.04l9.26-2.909c.421-.134.713-.525.713-.966V7.838l1.683-.377zM7.76 5.394l7.224 2.27V24.45L7.759 22.18zm9.261 2.27 7.22-2.27v16.787l-7.22 2.266zm12.597-2.26a1.01 1.01 0 0 0-.86-.2l-2.477.558V4.015c0-.324-.156-.628-.417-.819a1.04 1.04 0 0 0-.91-.151L15.999 5.86l-8.95-2.815a1.04 1.04 0 0 0-.911.151c-.261.19-.417.495-.417.819v1.747l-2.48-.558A1.016 1.016 0 0 0 2 6.194v18.91c0 .157.047.302.112.435v1.655a1.013 1.013 0 0 0 1.019 1.012h9.096l3.55.794h.447l3.55-.794h9.095c.272 0 .527-.104.719-.296.193-.19.3-.446.3-.716v-1.655a1 1 0 0 0 .112-.435V6.194a1.01 1.01 0 0 0-.383-.79" clip-rule="evenodd"/></svg>