<svg xmlns="http://www.w3.org/2000/svg" width="32" height="32" fill="none"><path fill="#333" fill-rule="evenodd" d="M4.046 24.197h23.909V9.03H4.045zm24.932 1.021v-1.021zM3.024 26.242A1.03 1.03 0 0 1 2 25.218V8.008c0-.269.111-.532.303-.721.188-.19.452-.3.721-.3h25.954A1.028 1.028 0 0 1 30 8.009v17.21c0 .27-.11.532-.3.723s-.453.3-.722.3zm12.478-9.628a3.8 3.8 0 0 0 3.795 3.792 3.8 3.8 0 0 0 3.794-3.791 3.8 3.8 0 0 0-3.794-3.794 3.8 3.8 0 0 0-3.795 3.794m-2.042 0a5.836 5.836 0 1 1 11.674 0 5.835 5.835 0 0 1-5.837 5.836 5.835 5.835 0 0 1-5.837-5.835M6.377 6.044a1.022 1.022 0 1 1 0-2.044h3.666a1.022 1.022 0 1 1 0 2.043z" clip-rule="evenodd"/></svg>