<svg xmlns="http://www.w3.org/2000/svg" width="32" height="32" fill="none"><path fill="#333" fill-rule="evenodd" d="M4.418 27.514 7.1 19.228h17.56l2.891 8.286zm2.96-10.453h16.986V4.477H7.377zm22.565 11.136-3.54-10.155V3.458c0-.268-.11-.53-.298-.72a1.03 1.03 0 0 0-.719-.298H6.36c-.268 0-.529.11-.719.299-.19.19-.298.451-.298.719v14.59l-3.293 10.17a1.02 1.02 0 0 0 .97 1.333h25.963c.33 0 .639-.159.83-.43.193-.267.239-.611.131-.924m-11.907-2.821a.502.502 0 0 1-.509.594h-3.115a.524.524 0 0 1-.531-.599l.103-.839a.696.696 0 0 1 .674-.598h2.546a.73.73 0 0 1 .699.595zm4.709-10.76a.604.604 0 0 1-.606.604H9.732c-.331 0-.6-.27-.6-.603V6.898c0-.333.269-.604.6-.604h12.407c.334 0 .606.271.606.604zm-12.222 7.528a.8.8 0 0 1-.743.587h-.876c-.332 0-.527-.26-.437-.581l.238-.835a.85.85 0 0 1 .77-.579h.785c.333 0 .54.264.461.586zm3.219-.014c-.03.331-.326.6-.658.6h-.989a.48.48 0 0 1-.487-.592l.154-.81a.76.76 0 0 1 .717-.592h.79c.332 0 .577.27.546.6zm3.223.023a.56.56 0 0 1-.567.603h-.986a.58.58 0 0 1-.581-.603l.033-.815a.63.63 0 0 1 .623-.602h.79c.33 0 .616.272.639.601zm3.226-.012c.07.325-.143.589-.475.589h-.986a.694.694 0 0 1-.674-.598l-.094-.798a.524.524 0 0 1 .534-.598h.785c.333 0 .663.266.732.59zm3.214.024c.112.31-.065.565-.397.565h-.987a.82.82 0 0 1-.755-.583l-.215-.826c-.084-.32.117-.585.45-.585h.787c.334 0 .698.257.81.568z" clip-rule="evenodd"/></svg>