<svg xmlns="http://www.w3.org/2000/svg" width="32" height="32" fill="none"><path fill="#333" fill-rule="evenodd" d="M22.81 26.438c-.28.908-.765 1.517-.905 1.55q.003-.001-.013.005H9.916c-.784-.66-1.227-2.262-1.207-4.136-.015-2.395.665-5.1 1.028-5.84.486-1.057.666-2.157.663-3.198 0-1.094-.187-2.132-.433-3.052a.7.7 0 0 1-.02-.184c-.017-.414.297-1.249.666-1.892.359-.653.715-1.126.715-1.129a1 1 0 0 0 .174-.45c.013.002.025.008.038.008h6.218c.01 0 .02-.006.03-.006.04.365.265.686.614.827 1.52.621 2.651 1.603 3.956 3.985.648 1.206.877 2.317.88 3.43 0 1.147-.257 2.298-.617 3.467-.087.28-.045.587.113.836.342.51.573 1.537.565 2.655.002 1.068-.186 2.223-.489 3.124M12.631 4.342a6.2 6.2 0 0 1 1.963-.332 8.3 8.3 0 0 1 2.195.324c-.014.5-.029 1.167-.033 1.776h-4.198zm12.034 15.66c.329-1.14.582-2.353.582-3.647a9.05 9.05 0 0 0-1.122-4.385c-1.257-2.356-2.672-3.803-4.386-4.637-.091-.5-.32-.935-.625-1.227a2.3 2.3 0 0 0-.348-.276c.013-1.04.053-2.18.053-2.184a1 1 0 0 0-.632-.966c-.066-.021-1.663-.672-3.593-.68-1.957.006-3.325.73-3.408.768a1 1 0 0 0-.537.847l-.096 2.297c-.36.305-.83.832-.988 1.672-.417.593-1.566 2.26-1.627 3.999 0 .223.02.46.088.708.214.795.367 1.67.367 2.528-.002.819-.141 1.614-.48 2.356-.55 1.212-1.199 3.913-1.213 6.682.018 2.264.41 4.68 2.36 5.987.16.1.348.156.542.156h12.477l.361-.065c.088-.037.215-.074.402-.171.993-.568 1.474-1.562 1.876-2.689.378-1.14.59-2.467.592-3.76-.009-1.18-.168-2.333-.645-3.313m-5.416-2.079a.3.3 0 0 1-.054.005c-.036-.07-.078-.148-.125-.248-.518-.967-1.327-2.492-1.98-3.23a1.5 1.5 0 0 1-.041-.39c-.002-.385.1-.9.274-1.24.153-.294.285-.407.384-.444v.005c.553.167 2.06 2.122 1.984 3.85a3.3 3.3 0 0 1-.442 1.692m-1.544-7.565c-.121 0-.201.012-.257.02-.978.16-1.602.879-1.926 1.553a4.9 4.9 0 0 0-.481 2.129c.03.6.027 1.136.564 1.738.085.06.673.956 1.094 1.727.224.392.433.781.586 1.075l.18.357.015.005c.33.838.712.753.922.877.246.07.484.098.746.098.486-.035 1.145-.01 1.717-.8.59-.914.838-1.938.836-2.905-.004-1.523-.577-2.903-1.291-3.947-.763-1.016-1.47-1.83-2.705-1.927m-5.321 14.534h7.035v-1.509h-7.035zm-.148 2.013a1.863 1.863 0 0 1-1.861-1.859v-1.81a1.864 1.864 0 0 1 1.86-1.86h7.335a1.86 1.86 0 0 1 1.858 1.86v1.81a1.86 1.86 0 0 1-1.859 1.86z" clip-rule="evenodd"/></svg>