<svg xmlns="http://www.w3.org/2000/svg" width="32" height="32" fill="none"><path fill="#333" fill-rule="evenodd" d="M11.065 27.964h9.873v-5.567h-9.873zm.099-7.603h9.674v-4.257h-9.674zm2.323-11.836h5.028l2.423 2.736v2.804h-9.873v-2.804zm9.259 1.684-2.984-3.372c-.042-.048-.1-.07-.147-.109 0-.012.007-.024.007-.036v-3.67c0-.268-.11-.53-.302-.72A1.04 1.04 0 0 0 18.59 2h-5.177c-.275 0-.539.11-.733.302-.193.19-.301.452-.301.72v3.67c0 .012.008.024.008.036-.05.038-.107.061-.15.109l-2.982 3.372a1.02 1.02 0 0 0-.255.67v18.103c0 .273.106.526.303.72.195.193.455.298.73.298h11.936A1.027 1.027 0 0 0 23 28.982V10.879a1 1 0 0 0-.254-.67" clip-rule="evenodd"/></svg>