<svg xmlns="http://www.w3.org/2000/svg" width="32" height="32" fill="none"><path fill="#333" fill-rule="evenodd" d="M4.017 21.228H27.98V6.02H4.017zM29.704 4.295A1.02 1.02 0 0 0 28.989 4H3.01A1.01 1.01 0 0 0 2 5.01v17.227a1.01 1.01 0 0 0 1.01 1.01h12.114v3.089H8.138a1.009 1.009 0 1 0 0 2.018h15.99a1.008 1.008 0 0 0 0-2.018h-6.986v-3.09h11.847A1.01 1.01 0 0 0 30 22.237V5.011c0-.267-.108-.528-.296-.716m-3.446 14.36a.626.626 0 0 1-.626.624H6.5a.623.623 0 0 1-.623-.624V8.57c0-.346.28-.627.623-.627h19.13c.345 0 .627.28.627.627z" clip-rule="evenodd"/></svg>