<svg xmlns="http://www.w3.org/2000/svg" width="32" height="32" fill="none"><path fill="#333" fill-rule="evenodd" d="m4.579 27.967 1.072-8.163h6.392v1.722a1.01 1.01 0 0 0 1.018 1.018h5.803a1.01 1.01 0 0 0 1.017-1.018v-1.722h6.465l1.073 8.163zm13.267-7.455h-3.768V16.91h3.766zm-8.074-8.326q.106.728.302 1.406a1.02 1.02 0 0 0 1.956-.564c-.078-.268-.128-.557-.182-.842h8.303c-.053.285-.102.574-.18.842a1.016 1.016 0 0 0 .98 1.299c.441 0 .848-.29.978-.735h-.001q.194-.678.304-1.406h3.113l.734 5.584h-6.198v-1.876a1.013 1.013 0 0 0-1.017-1.017h-5.803a1.03 1.03 0 0 0-.722.297c-.19.19-.296.452-.296.72v1.876H5.918l.733-5.584zm3.28-6.387C13.89 4.636 14.93 4.034 16 4.034s2.112.602 2.948 1.765c.775 1.08 1.287 2.627 1.35 4.353H11.7c.063-1.726.576-3.273 1.351-4.353m15.325 13.815a1 1 0 0 0 .46-.827c0-.447-.293-.815-.694-.951l-.893-6.8a1.02 1.02 0 0 0-1.01-.884h-3.892C22.213 5.833 19.704 2.082 16 2c-3.705.082-6.214 3.833-6.349 8.152H5.758c-.51 0-.944.38-1.01.885l-.89 6.79a1 1 0 0 0-.741.96c0 .368.207.677.501.856L2.41 28.85c-.042.293.048.582.242.804.196.22.47.345.768.345h25.162c.293 0 .571-.126.766-.345a1.01 1.01 0 0 0 .243-.804z" clip-rule="evenodd"/></svg>