<svg xmlns="http://www.w3.org/2000/svg" width="32" height="32" fill="none"><path fill="#333" fill-rule="evenodd" d="M26.428 9.687c-.118-.01-.232-.03-.344-.047q.114.123.226.265c.804.997 1.165 2.04.807 2.326-.361.286-1.303-.294-2.111-1.294a7 7 0 0 1-.207-.277c-.009.114-.013.226-.027.348-.144 1.27-.63 2.26-1.085 2.21-.46-.053-.714-1.125-.574-2.395q.026-.177.054-.344a5 5 0 0 1-.268.223c-1.007.8-2.057 1.162-2.341.803-.29-.357.294-1.294 1.302-2.097q.138-.106.277-.206c-.112-.008-.228-.011-.35-.025-1.277-.14-2.272-.628-2.224-1.081.052-.455 1.133-.709 2.412-.568.118.013.232.037.344.052a8 8 0 0 1-.226-.264c-.805-1-1.166-2.04-.805-2.326.358-.285 1.304.292 2.109 1.292q.108.141.206.278a7 7 0 0 1 .03-.345c.142-1.272.63-2.263 1.085-2.212.456.05.711 1.125.57 2.392-.014.12-.034.235-.052.347.087-.076.176-.156.266-.225 1.01-.801 2.058-1.156 2.343-.801.288.357-.296 1.293-1.302 2.092a5 5 0 0 1-.28.21q.172.007.348.024c1.28.143 2.28.626 2.23 1.083-.055.453-1.134.705-2.413.562m-1.221 6.94c-.046-.022-.083-.048-.133-.07.058-.904-.265-1.677-.976-2.195-.01-.008-.022-.01-.032-.015a2.38 2.38 0 0 0 1.406-.668q.04.391.042.794c0 .748-.11 1.468-.307 2.154m-5.083-3.368q.235-.182.402-.376a2.56 2.56 0 0 0 1.19.21c.209.368.473.64.761.842-.275.026-.542.08-.793.178-.433-.488-.964-.774-1.56-.854m2.825 6.616c-.122.02-.246.04-.363.047q.153.097.305.205c1.084.778 1.74 1.731 1.457 2.117-.281.384-1.394.063-2.479-.721a5 5 0 0 1-.285-.224q.036.172.066.358c.212 1.318 0 2.447-.474 2.524-.476.074-1.034-.936-1.243-2.253a6 6 0 0 1-.045-.359c-.068.1-.13.198-.203.304-.788 1.077-1.745 1.723-2.133 1.446-.388-.283-.06-1.385.724-2.461.075-.102.152-.194.227-.288-.12.028-.237.049-.361.067-1.326.21-2.463 0-2.537-.473-.077-.47.937-1.023 2.264-1.232a5 5 0 0 1 .362-.044c-.1-.066-.2-.131-.304-.205-1.085-.78-1.739-1.73-1.459-2.117.281-.383 1.395-.064 2.481.719.102.073.194.152.288.222a6 6 0 0 1-.07-.354c-.208-1.316 0-2.447.478-2.522.472-.078 1.027.933 1.24 2.253q.03.18.043.359.098-.155.206-.303c.79-1.078 1.743-1.73 2.13-1.45.389.281.065 1.385-.723 2.464q-.11.148-.226.286c.116-.028.238-.047.36-.068 1.327-.21 2.462 0 2.537.472.076.47-.938 1.024-2.263 1.231m-7.763 4.057c-1.265-.007-2.453-.394-3.639-1.347.749-.593 1.694-1.514 2.324-2.794l.264.033c.017.005.043.01.061.012a2.4 2.4 0 0 0 .015.542c.061.378.333 1.36 1.536 1.876-.039.607.107 1.142.41 1.59-.33.053-.658.09-.971.088m-3.13 4.218a1.7 1.7 0 0 1-.533.176 29 29 0 0 1-.796-2.253c-.096-.299-.187-.591-.27-.86.144-.234.266-.453.354-.648q.01.01.022.015c.168.316.342.657.5.996.456.94.894 1.952 1.035 2.346-.05.056-.158.15-.313.228m-1.992-6.994c-1.32-1.621-1.719-3.24-1.727-4.751 0-.076.012-.148.014-.222.257-.015.514-.047.769-.106.111.495.295.97.584 1.375.415.58 1.01.96 1.677 1.072.13.023.27.036.411.036.146 0 .282-.038.422-.061-.286.724-.747 1.35-1.24 1.858-.318.326-.64.596-.91.799M7.171 26.27c-.318.413-.63.814-.894 1.15l-1.348-1.453 3.328-1.403q.085.005.167.007a40 40 0 0 1-1.253 1.699m-3.624-4.079a.6.6 0 0 1-.012-.13c-.003-.217.085-.575.215-.838.05-.105.11-.197.155-.26.465.086 1.888.505 3.074.928.475.166.928.326 1.331.472-.091.025-.184.045-.277.085l-1.056.447c-1.358-.203-2.951-.536-3.43-.704m11.47-4.277c-.195-.036-.377-.07-.535-.095q.052-.357.064-.742c.115.064.23.13.35.183q.024.325.121.654M6.177 9.16c.112-.65 1.683-.924 3.508-.613q.254.042.492.099c-.1-.128-.202-.257-.304-.396-1.071-1.502-1.5-3.03-.964-3.413.542-.376 1.85.533 2.921 2.034.1.139.186.28.276.417q.029-.243.07-.494c.312-1.814 1.092-3.197 1.746-3.084.65.109.927 1.671.617 3.484q-.045.253-.102.49c.13-.103.26-.207.4-.302 1.511-1.063 3.049-1.492 3.432-.958.38.537-.537 1.839-2.047 2.903-.136.097-.28.186-.422.272.166.016.332.042.502.07 1.825.308 3.217 1.085 3.102 1.735-.109.648-1.68.92-3.504.61a7 7 0 0 1-.495-.098q.159.192.306.397c1.067 1.498 1.501 3.028.962 3.41-.54.377-1.85-.53-2.917-2.034-.102-.141-.19-.28-.277-.416q-.026.241-.07.494c-.31 1.815-1.091 3.196-1.745 3.085-.655-.11-.93-1.672-.615-3.485.026-.167.061-.33.096-.49-.129.1-.256.205-.398.303-1.511 1.065-3.046 1.491-3.433.953-.38-.534.534-1.835 2.046-2.897.144-.099.28-.188.421-.273a9 9 0 0 1-.499-.07c-1.825-.312-3.217-1.086-3.105-1.733m22.97-1.973q.066-.22.09-.448a2.34 2.34 0 0 0-.491-1.741c-.445-.555-1.137-.874-1.896-.874q-.081 0-.163.006a3 3 0 0 0-.256-.381 2.37 2.37 0 0 0-1.589-.886l-.112-.012h-.14c-.713 0-1.335.3-1.82.843a2.7 2.7 0 0 0-.737-.103c-.543 0-1.049.172-1.463.499-.26.207-.461.47-.608.763a10 10 0 0 0-1.32-.239 2.9 2.9 0 0 0-1.22-.247c-.318 0-.64.044-.958.117-.438-1.935-1.713-2.356-2.257-2.447A2.3 2.3 0 0 0 13.793 2c-1.007 0-1.88.568-2.535 1.598-.569-.354-1.203-.6-1.868-.6a2.53 2.53 0 0 0-1.457.448c-.96.682-1.278 1.82-.975 3.182-1.92.427-2.364 1.657-2.466 2.245-.198 1.148.392 2.174 1.583 2.926-.749 1.186-.831 2.363-.156 3.314.094.13.232.288.41.442q-.038.415-.042.85a9.3 9.3 0 0 0 .876 3.94c-1.362-.457-2.638-.889-3.397-.917-.059.006-.143-.012-.327.046l-.03.012-.057.019v.001c-.566.244-.757.645-.986 1.062-.216.45-.363.96-.365 1.493-.02.5.192 1.24.92 1.529.307.11.853.249 1.49.389l-1.62.683a1.02 1.02 0 0 0-.601.723c-.07.32.023.66.248.904l3.145 3.384c.195.213.468.327.755.327h.032c.3-.011.576-.149.765-.382.002 0 .81-1.001 1.664-2.114q.279-.373.547-.724c.356 1.082.665 2.06.995 2.575.328.43.777.5 1.102.502.54-.009 1.045-.188 1.51-.463.433-.286.933-.673.972-1.442a1.4 1.4 0 0 0-.04-.323c-.13-.416-.442-1.156-.822-1.979.682.203 1.38.316 2.087.316h.036c1.407-.004 2.807-.381 4.2-1.03.469.419 1.02.655 1.645.655h.168l.208-.03c.867-.143 1.505-.687 1.864-1.52a3 3 0 0 0 .19.005c.827 0 1.564-.353 2.02-.971.522-.717.59-1.558.251-2.403q.238-.209.427-.466a2.38 2.38 0 0 0 .458-1.563 9.8 9.8 0 0 0 .944-4.17c0-.378-.026-.752-.068-1.119q.177-.095.338-.22c.54-.432.931-1.139.882-2.059.809-.444 1.195-1.144 1.273-1.813.075-.686-.149-1.462-.838-2.076m-7.821 11.47a1.24 1.24 0 0 1-.002 1.76 1.257 1.257 0 0 1-1.772 0 1.236 1.236 0 0 1 0-1.756 1.26 1.26 0 0 1 1.774-.005m-7.38-9.688a1.66 1.66 0 0 1-.003 2.36 1.68 1.68 0 0 1-2.37 0 1.66 1.66 0 0 1 0-2.358 1.68 1.68 0 0 1 2.372-.002m10.556-1.585c.646.175 1.028.843.85 1.485a1.22 1.22 0 0 1-1.502.848 1.21 1.21 0 0 1-.849-1.488 1.22 1.22 0 0 1 1.501-.845" clip-rule="evenodd"/></svg>