<svg xmlns="http://www.w3.org/2000/svg" width="32" height="32" fill="none"><path fill="#333" fill-rule="evenodd" d="m22.74 5.551-.002 20.937a1.073 1.073 0 1 0 2.146 0v-5.195c0-.426.263-.808.661-.956 1.048-.436 2.368-1.398 2.422-5.421v-.326c-.05-3.699-1.806-7.838-3.122-9.402l-.103-.152a1.064 1.064 0 0 0-2.002.515m-2.034 20.937V5.551A3.115 3.115 0 0 1 23.81 2.44c1.139 0 2.123.621 2.657 1.52 1.676 2.119 3.422 6.352 3.53 10.592v.02l.002.345c.048 3.957-1.43 6.123-3.083 7.033l-.001 4.54c0 1.716-1.39 3.111-3.105 3.111s-3.099-1.395-3.104-3.112m-3.448-10.827a.8.8 0 0 1-.234.561.8.8 0 0 1-.557.229H12.71a1.021 1.021 0 0 0-1.014 1.018v9.019a1.083 1.083 0 0 1-1.075 1.075 1.08 1.08 0 0 1-1.074-1.075l.004-9.019a1.026 1.026 0 0 0-1.019-1.018h-3.78a.8.8 0 0 1-.563-.232.82.82 0 0 1-.23-.558V5.44c0-.439.5-.791.937-.791.434 0 .92.35.92.791v6.479a1.017 1.017 0 0 0 1.016 1.019h1.7c.271 0 .525-.106.717-.297.193-.194.302-.45.302-.722V5.51c0-.593.476-1.073 1.07-1.076.59.003 1.071.484 1.074 1.076v6.407c0 .268.109.533.298.722s.45.297.717.297h1.783c.272 0 .485-.106.678-.3.192-.191.296-.446.296-.72V5.44c.002-.44.471-.791.905-.791.438 0 .885.352.885.791zM16.5 2.616v-.007h-.078a2.82 2.82 0 0 0-2.762 2.255A3.11 3.11 0 0 0 10.622 2.4a3.11 3.11 0 0 0-3.04 2.473A2.82 2.82 0 0 0 4.82 2.61 2.825 2.825 0 0 0 2 5.44v10.222a2.82 2.82 0 0 0 2.821 2.827h2.697v8a3.107 3.107 0 0 0 3.104 3.11 3.11 3.11 0 0 0 3.104-3.11v-8h2.696c.75 0 1.466-.295 1.996-.826a2.85 2.85 0 0 0 .826-2l.003-10.223A2.83 2.83 0 0 0 16.5 2.616" clip-rule="evenodd"/></svg>