<svg xmlns="http://www.w3.org/2000/svg" width="32" height="32" fill="none"><path fill="#333" fill-rule="evenodd" d="m12.047 18.673-.002-.002zm7.864-.087c.04.048.11.128.197.228.172.198.418.473.686.768l2.86 3.143c.095.117.341.228.592.225.158 0 .307-.04.402-.1l2.824-1.73c.24-.118.514-.62.494-.925a.6.6 0 0 0-.015-.138L25.404 9.671l.99-.246-.99.244c-.005-.222-.532-.658-.877-.622h-3.634a1.1 1.1 0 0 0-.52.117c-.068.652-.489 1.123-.91 1.385-.475.297-1.028.441-1.623.444h-3.678c-.596-.003-1.148-.147-1.622-.444-.421-.263-.845-.733-.913-1.385a1.1 1.1 0 0 0-.515-.117H7.477c-.347-.036-.872.398-.881.624L4.05 20.054a1 1 0 0 0-.015.138c-.021.307.253.807.495.928l2.823 1.73c.094.06.24.102.4.1.249.003.494-.108.595-.225l2.859-3.141c.414-.456.793-.889.895-1.014.134-.216.308-.29.357-.33.123-.064.181-.077.228-.092.085-.024.12-.025.156-.032.063-.008.108-.01.16-.014q.149-.01.366-.016c.29-.008.68-.013 1.109-.013h3.048c.743.003 1.294.009 1.594.039.027.009.041.009.057.009.036-.003.088-.003.367.12.05.04.222.115.358.332zm2.242 5.524-2.86-3.145c-.292-.32-.553-.613-.743-.83a40 40 0 0 0-1.024-.013h-3.049c-.387-.002-.765.004-1.025.013q-.016.015-.03.033c-.186.214-.438.493-.713.8l-2.866 3.143c-.565.609-1.33.884-2.09.889-.494 0-1-.12-1.458-.4L3.47 22.872c-.94-.607-1.448-1.612-1.469-2.68q0-.313.074-.627L4.62 9.181C4.987 7.863 6.146 7.036 7.477 7h3.635c.596.002 1.146.146 1.62.442.422.264.843.735.91 1.382.088.054.29.122.52.12h3.678c.23.004.43-.066.519-.117.068-.649.487-1.12.912-1.385.471-.296 1.024-.44 1.622-.442h3.634c1.328.036 2.488.86 2.853 2.18l.001-.002 2.55 10.396q.07.307.069.621c-.02 1.07-.53 2.071-1.47 2.677l-2.832 1.734a2.83 2.83 0 0 1-1.452.394c-.758-.005-1.525-.277-2.093-.89M21.02 12.92c0 .691.555 1.25 1.24 1.25.687 0 1.242-.559 1.242-1.25s-.555-1.25-1.241-1.25-1.241.56-1.241 1.25M7.144 14.618a2.507 2.507 0 0 0 2.5 2.519 2.507 2.507 0 0 0 2.501-2.519 2.507 2.507 0 0 0-2.5-2.518 2.507 2.507 0 0 0-2.5 2.518m15.821 1.014c0 .691.556 1.252 1.242 1.252s1.24-.56 1.24-1.252c0-.689-.555-1.248-1.24-1.248-.686 0-1.242.559-1.242 1.248m-3.903 0c0 .691.556 1.252 1.242 1.252s1.24-.56 1.24-1.252c0-.689-.554-1.248-1.24-1.248s-1.242.559-1.242 1.248" clip-rule="evenodd"/></svg>