<svg xmlns="http://www.w3.org/2000/svg" width="32" height="32" fill="none"><path fill="#333" d="M26.337 16c-.233-.233-.467-.389-.778-.389h-8.484V11.49c.545.078 1.168.078 1.868.078 1.479 0 3.191-.156 4.514-1.167 2.569-2.178 2.647-7 2.725-7.078l.077-.933-.934-.156S23.925 2 22.29 2c-1.479 0-3.191.156-4.514 1.167-.857.777-1.48 1.789-1.868 2.877-.39-1.088-1.012-2.1-1.868-2.877C12.716 2.156 11.004 2 9.525 2c-1.634 0-2.958.233-3.035.233l-.857.234.078.933c0 .078.078 4.822 2.647 7.078 1.323 1.01 3.035 1.166 4.514 1.166.856 0 1.557-.077 2.102-.155v4.122H6.412c-.312 0-.623.156-.779.389-.155.156-.233.467-.233.778l2.024 12.289c.155.544.545.933 1.09.933h15.021c.545 0 .934-.389 1.012-.856l2.024-12.366c.078-.311 0-.622-.234-.778m-8.795-8.011c.311-1.322.934-2.722 1.557-3.189.545-.467 1.946-.7 3.269-.7.622 0 1.245.078 1.712.078-.078.389-.156.933-.311 1.478-.312 1.322-.934 2.722-1.557 3.188-.545.467-1.946.7-3.269.7-.623 0-1.245-.077-1.712-.077.078-.467.155-.934.311-1.478m-4.67 1.555c-1.245 0-2.646-.233-3.191-.7-.623-.466-1.245-1.866-1.557-3.188-.155-.545-.233-1.09-.311-1.478C8.28 4.1 8.903 4.1 9.525 4.1c1.323-.078 2.646.233 3.27.7s1.245 1.867 1.556 3.189c.156.544.233 1.089.311 1.478-.545 0-1.167.077-1.79.077m11.52 8.09-.39 2.41H8.046l-.389-2.41zM22.679 27.9H9.37l-.933-5.756h15.177z"/></svg>