<svg xmlns="http://www.w3.org/2000/svg" width="32" height="32" fill="none"><path fill="#333" fill-rule="evenodd" d="M24.889 27.079a3.08 3.08 0 0 0 3.068-3.07 3.08 3.08 0 0 0-3.069-3.076 3.08 3.08 0 0 0-3.07 3.076h-.004a3.083 3.083 0 0 0 3.074 3.07m-5.12-3.07a5.117 5.117 0 1 1 10.235 0 5.114 5.114 0 0 1-5.115 5.114 5.117 5.117 0 0 1-5.12-5.114m-8.322-11.731V4.797l6.48 3.74zm9.039-4.627-9.552-5.514a1.026 1.026 0 0 0-1.536.888v11.029l.001.016v10.174c-1.116.065-2.135.197-2.99.395-.613.147-1.142.315-1.64.586-.437.262-1.18.7-1.249 1.875.068 1.176.813 1.612 1.249 1.872 1.431.741 3.517.997 6.11 1.028 1.707-.003 3.249-.158 4.467-.443.613-.146 1.141-.311 1.642-.585.435-.26 1.18-.696 1.248-1.872-.069-1.176-.814-1.613-1.249-1.875-1.323-.686-3.214-.952-5.54-1.012v-9.568l9.041-5.22a1.025 1.025 0 0 0-.002-1.774" clip-rule="evenodd"/></svg>