<svg xmlns="http://www.w3.org/2000/svg" width="32" height="32" fill="none"><path fill="#333" fill-rule="evenodd" d="M27.999 27.267H4V8.466h5.507l-.001.03a6.493 6.493 0 0 0 12.985 0l-.001-.03h5.509zM15.999 4a4.504 4.504 0 0 1 4.493 4.494A4.5 4.5 0 0 1 16 12.987a4.5 4.5 0 0 1-4.492-4.492 4.5 4.5 0 0 1 4.492-4.494m12 2.464A2 2 0 0 1 30 8.466v18.8a2.003 2.003 0 0 1-2.001 2.002H4c-1.103 0-2-.898-2-2.001V8.466a2 2 0 0 1 2-2.001h5.834A6.49 6.49 0 0 1 16 2a6.49 6.49 0 0 1 6.164 4.465zM15.514 8.93a.755.755 0 0 0 1.044.19.75.75 0 0 0 .191-1.044l-1.677-2.425a.75.75 0 1 0-1.234.852zm-9.192 9.662h3.5a.496.496 0 0 0 .5-.499v-4.67a.496.496 0 0 0-.5-.499h-3.5a.5.5 0 0 0-.355.144.5.5 0 0 0-.146.355v4.67a.496.496 0 0 0 .501.499m0 7.17h3.501a.5.5 0 0 0 .499-.499v-4.67c0-.133-.05-.258-.145-.351a.5.5 0 0 0-.354-.148h-3.5a.51.51 0 0 0-.356.145.5.5 0 0 0-.146.355v4.669a.496.496 0 0 0 .501.499m15.674-7.17h3.5a.5.5 0 0 0 .354-.147.5.5 0 0 0 .146-.352v-4.67a.48.48 0 0 0-.146-.352.5.5 0 0 0-.353-.147h-3.5a.5.5 0 0 0-.355.144.5.5 0 0 0-.146.355v4.67c0 .134.051.26.146.352.095.096.22.147.354.147m0 7.17h3.5a.497.497 0 0 0 .502-.5v-4.668a.499.499 0 0 0-.501-.5h-3.5a.5.5 0 0 0-.355.145.5.5 0 0 0-.146.355v4.669a.497.497 0 0 0 .5.499" clip-rule="evenodd"/></svg>