<svg xmlns="http://www.w3.org/2000/svg" width="32" height="32" fill="none"><path fill="#333" fill-rule="evenodd" d="m24.45 24.453-2.51-2.51.002-.002a8.4 8.4 0 0 0 1.8-2.67v-.001l3.272 1.382a12 12 0 0 1-2.565 3.801m-16.905-.008 2.508-2.507.003.003a8.5 8.5 0 0 0 2.674 1.804l-1.38 3.268a12 12 0 0 1-3.805-2.568m.021-16.911 2.507 2.509-.017.015a8.4 8.4 0 0 0-1.798 2.672l-.001.006-3.274-1.382a12 12 0 0 1 2.583-3.82m8.451-3.49v3.554H16a8.4 8.4 0 0 0-3.149.614l-1.334-3.287a12 12 0 0 1 4.485-.883zm8.446 3.518-2.51 2.51-.011-.014a8.4 8.4 0 0 0-2.668-1.8l1.382-3.27a12 12 0 0 1 3.807 2.574m-.68 5.28 3.29-1.335c.563 1.387.883 2.901.884 4.492v.004h-3.554v-.001a8.4 8.4 0 0 0-.62-3.16m-5.328 3.161V16c0-.326-.067-.636-.182-.92l4.091-1.661c.325.797.505 1.663.505 2.583v.001zm-2.45 8.4a8.4 8.4 0 0 0 3.164-.624l1.336 3.288c-1.39.567-2.907.888-4.502.89zm-2.46-8.396c.002.328.07.638.186.924l-4.092 1.661a6.8 6.8 0 0 1-.51-2.585zm2.472-2.46-.016-.002c-.323 0-.63.065-.914.18l-1.66-4.095c.793-.32 1.662-.5 2.573-.502h.017zm.942.194 1.72-4.072c.82.347 1.559.851 2.18 1.473l.01.013-3.122 3.122a2.5 2.5 0 0 0-.788-.536m-.953 4.715c.328-.002.64-.07.926-.186l1.662 4.091a6.8 6.8 0 0 1-2.589.51zm-4.849-7.33 3.122 3.125c-.229.228-.416.498-.544.8l-4.07-1.719q0-.005.003-.006a6.8 6.8 0 0 1 1.475-2.184q.006-.008.014-.015m-3.561 4.881c0 1.116.224 2.182.624 3.16l-3.288 1.337a12 12 0 0 1-.89-4.498zm5.73 6.324a6.8 6.8 0 0 1-2.183-1.47l-.006-.007 3.123-3.123c.224.226.49.407.787.532l-1.72 4.07zm7.532-1.47-3.123-3.124c.222-.222.403-.486.527-.78l4.069 1.719a6.9 6.9 0 0 1-1.47 2.183zM16.002 2C8.27 2 2 8.264 2 15.999c0 7.734 6.27 14 14.002 14.001 7.73-.001 13.996-6.267 13.999-14.001C29.998 8.264 23.73 2 16 2" clip-rule="evenodd"/></svg>