<svg xmlns="http://www.w3.org/2000/svg" width="32" height="32" fill="none"><path fill="#333" fill-rule="evenodd" d="M9.934 13.718c.152-.117.326-.245.541-.382.599-.387 1.394-.741 2.094-.735.768-.002 1.582.253 2.19.52.61.265.984.521.987.52.25.166.585.152.823-.035 0 0 .058-.045.205-.137.445-.286 1.552-.87 2.933-.868.857-.002 1.622.352 2.18.727.178.119.323.234.45.342v1.468H9.934zm0-2.291c.52-.44 1.716-1.205 2.634-1.177.719-.002 1.509.242 2.095.5.592.26.947.505.953.501a.94.94 0 0 0 1.1-.044s.046-.038.184-.127c.422-.27 1.493-.835 2.807-.83.792-.002 1.516.327 2.048.687.243.162.442.328.582.455v.57c-.678-.398-1.56-.751-2.63-.764a7.03 7.03 0 0 0-3.595 1.028c-.655-.367-2.01-1.014-3.543-1.028-1.025.02-1.932.408-2.635.826zM9 17.008h14.273a.933.933 0 0 0 .936-.933v-5.07a.94.94 0 0 0-.229-.614c-.016-.014-.124-.133-.294-.297V3.935a.936.936 0 0 0-1.872 0v4.917a5.4 5.4 0 0 0-2.107-.474 7.24 7.24 0 0 0-3.601.993c-.707-.382-2.024-.976-3.538-.993-.784.02-1.486.24-2.095.518V3.934a.937.937 0 0 0-1.873 0v6.18c-.14.121-.236.212-.253.22a.93.93 0 0 0-.283.67v5.071c0 .247.096.484.274.66a.92.92 0 0 0 .662.273m11.426 6.642c-1.109.96-2.318 2.05-2.885 3.376h-2.649c-.657-1.246-1.853-2.363-2.952-3.336a33 33 0 0 0-1.767-1.418l.295-.505c1.129.207 3.51.588 5.778.592 2.261-.004 4.635-.383 5.769-.59l.263.469c-.486.338-1.158.832-1.853 1.412m3.909-1.578-1.019-1.809a.94.94 0 0 0-1.01-.457c-.005.005-3.235.685-6.06.68-1.41 0-2.924-.168-4.085-.34-1.16-.17-1.967-.342-1.97-.34a.935.935 0 0 0-1.003.444L8.13 22.058a.934.934 0 0 0 .275 1.244c.002.002 1.11.766 2.312 1.805 1.201 1.013 2.464 2.395 2.683 3.152a.93.93 0 0 0 .888.64h3.929a.936.936 0 0 0 .922-.772c.062-.662 1.254-2.055 2.487-3.042 1.217-1.019 2.392-1.759 2.392-1.763a.933.933 0 0 0 .317-1.25" clip-rule="evenodd"/></svg>