<svg xmlns="http://www.w3.org/2000/svg" width="32" height="32" fill="none"><path fill="#333" fill-rule="evenodd" d="m24.635 7.845-1.028-.967 3.45-2.586.425.313zm-7.981 12.524c-.587.255-1.398.551-2.004 1.372-.896 1.241-1.391 2.678-1.876 3.921a4.7 4.7 0 0 1-.915 1.446c-.49.504-1.052.85-1.809.853-.84.004-2.15-.462-3.949-2.263-1.581-1.584-2.061-2.893-2.063-3.89.002-1.06.542-1.947 1.388-2.633.823-.673 1.934-1.057 2.743-1.057h.096l.072-.011c.687-.151.902-.438 1.31-.774 1.096-1.028 2.564-2.944 3.508-4.585.1-.177.191-.296.263-.374-.189.425-.476 1.136-.486 1.963-.042.514.16 1.099.553 1.591l-3.375 3.28L9.902 19a1.021 1.021 0 0 0-1.442 1.445l.186.185-1.123 1.092-.93-.93a1.02 1.02 0 1 0-1.442 1.442l4.254 4.254c.198.2.46.297.72.297.261 0 .522-.098.72-.297.4-.401.398-1.045 0-1.445l-.99-.99 1.156-1.122c.167.106.35.178.54.178a1.005 1.005 0 0 0 .856-1.536l2.532-2.46q.062.174.162.35c.257.487.923.874 1.531.842q.098 0 .196-.008zm-8.41 2.073 1.123-1.092.891.89-1.123 1.094zm3.478-1.623-.892-.89 3.43-3.335c.172.098.352.186.553.25q.065.071.118.136c-.05.23-.09.521-.115.833zM29.587 3.627 27.661 2.2a1.02 1.02 0 0 0-1.219.003l-5.029 3.771c-.243.18-.389.459-.405.76-.017.303.1.593.32.8l.73.685-6.637 6.647c-.513-.198-.375-.223-.45-.53-.012-.413.285-1.099.468-1.496.095-.235.122-.44.12-.61-.057-1.027-.738-1.932-2.018-2.022-.89.005-1.65.618-2.157 1.527-.54.95-1.367 2.112-2.117 3.012-.374.45-.734.836-1.006 1.092-.122.11-.226.195-.292.246-2.626.14-5.877 2.174-5.969 5.724 0 1.687.833 3.51 2.658 5.334C6.662 29.147 8.443 29.995 10.05 30h.013c1.443 0 2.555-.723 3.273-1.487a6.7 6.7 0 0 0 1.342-2.118c.487-1.276.963-2.554 1.62-3.453.17-.247.522-.435 1.147-.691.598-.256 1.434-.585 2.112-1.392.408-.544.764-.946.812-1.739.02-.341-.176-.84-.54-1.086-.352-.25-.692-.287-.99-.29-.556.006-1.12.161-1.88.44l-.129.043-.001-.069c-.007-.467-.106-.645.197-1.134.327-.53.052-.72.052-.72l-.102-.107 6.57-6.578.462.432c.19.178.439.277.699.277h.048c.276-.013.534-.139.717-.346l4.274-4.863c.186-.212.278-.497.249-.78a1.03 1.03 0 0 0-.408-.712" clip-rule="evenodd"/></svg>