<svg xmlns="http://www.w3.org/2000/svg" width="32" height="32" fill="none"><path fill="#333" fill-rule="evenodd" d="M23.426 17.417c-1.26 2.822-3.521 4.193-6.909 4.193h-1c-3.18 0-5.519-1.44-6.95-4.278-1.074-2.136-1.037-3.162-.932-3.38.013-.026.152-.12.48-.185a1 1 0 0 1 .168-.018c.346 0 .597.68.659 1.142.077.593.415 1.12.92 1.442.548.348 1.124.526 1.716.526 1.14 0 2.168-.686 2.675-1.79.568-1.232.39-2.714-.442-3.687a2 2 0 0 0-.93-.614c-1.524-.481-3.547-2.76-3.419-4.222.287-1.234 1.111-2.52 6.356-2.52l.069.003h.26l.07-.003c5.243 0 6.068 1.286 6.356 2.523.128 1.46-1.895 3.738-3.42 4.22a2 2 0 0 0-.93.614c-.832.972-1.008 2.454-.441 3.686.51 1.104 1.534 1.79 2.675 1.79.592 0 1.169-.178 1.717-.526.504-.32.84-.85.92-1.442.06-.462.312-1.142.657-1.142q.074 0 .167.018c.338.067.446.154.45.154.057.106.278.764-.942 3.496m.885-5.636a2.8 2.8 0 0 0-.56-.058c-1.598 0-2.477 1.478-2.666 2.9-.229.147-.439.21-.628.21-.901 0-1.291-1.436-.694-2.134 2.285-.72 5.168-3.847 4.81-6.49C23.85 2.842 20.663 2 16.217 2c-.069 0-.132.003-.2.003q-.097-.002-.199-.003c-4.447 0-7.634.842-8.357 4.209-.359 2.643 2.526 5.77 4.81 6.49.598.697.208 2.135-.693 2.135-.19 0-.4-.064-.628-.21-.19-1.423-1.068-2.9-2.666-2.9q-.268-.002-.561.057c-3.33.658-2.114 4.18-.964 6.462 1.153 2.29 3.536 5.169 8.224 5.373v1.485l-4.637 3.038c-.47.304-.6.934-.293 1.402a1.01 1.01 0 0 0 1.402.294v-.003l4.541-2.975 4.546 2.975a1.011 1.011 0 1 0 1.109-1.691l-4.64-3.04v-1.48c4.716-.173 7.1-2.771 8.265-5.378 1.041-2.333 2.365-5.804-.965-6.462" clip-rule="evenodd"/></svg>