<svg xmlns="http://www.w3.org/2000/svg" width="32" height="32" fill="none"><path fill="#333" fill-rule="evenodd" d="M26.527 19.714V15.31a2.388 2.388 0 0 1 0 4.403M7.742 25.992h16.564V15.13H7.742zm-2.27-6.278a2.39 2.39 0 0 1-1.465-2.2 2.39 2.39 0 0 1 1.465-2.204zm20.14-6.6v.002H6.388A4.393 4.393 0 0 0 2 17.514c0 2.203 1.626 4.009 3.736 4.327v5.156c0 .267.104.52.296.71a.99.99 0 0 0 .706.293H25.31a1 1 0 0 0 .71-.292c.19-.192.292-.444.292-.711v-5.16A4.39 4.39 0 0 0 30 17.514a4.397 4.397 0 0 0-4.389-4.4M16.108 8.7c3.037-.042 5.654.814 7.1 1.814H9.013c1.448-1 4.063-1.856 7.097-1.814M6.9 12.525h18.423c.328 0 .633-.161.822-.433.188-.268.232-.611.12-.92-1.008-2.427-4.002-3.859-7.728-4.32C18.177 5.197 17.183 4 16 4c-1.19 0-2.187 1.211-2.54 2.88-3.622.488-6.514 1.913-7.502 4.292a1.006 1.006 0 0 0 .943 1.353" clip-rule="evenodd"/></svg>