<svg xmlns="http://www.w3.org/2000/svg" width="32" height="32" fill="none"><path fill="#333" fill-rule="evenodd" d="M18.67 28.004c-.15-1.089-.898-6.412-1.01-6.875-.151-.62-.43-.584-.43.04v3.18l.025 3.655h-2.5l.026-3.656V21.17c0-.625-.278-.66-.429-.04-.113.462-.86 5.785-1.012 6.874h-2.857c.52-2.318 1.656-7.37 2.284-9.924.206-.851.29-1.641.29-2.373 0-.923-.129-1.745-.282-2.477l-.037-.134c-.452-1.248-.738-2.726-.991-3.902h8.516c-.255 1.176-.542 2.654-.991 3.902l-.036.13c-.155.736-.286 1.558-.286 2.481 0 .732.083 1.524.293 2.376.627 2.553 1.763 7.603 2.283 9.92zm2.512-10.398v-.001a7.8 7.8 0 0 1-.235-1.898c0-.714.095-1.368.23-2.007.704-2.009 1.041-4.382 1.308-5.207a1 1 0 0 0-.148-.888 1 1 0 0 0-.804-.407h-2.076v-4.2A.995.995 0 0 0 18.46 2a.995.995 0 0 0-.998.998v4.2h-2.911v-4.2a.997.997 0 1 0-1.996 0v4.2h-2.077a.996.996 0 0 0-.954 1.296c.267.824.605 3.2 1.31 5.208a10 10 0 0 1 .226 2.005c0 .58-.063 1.205-.233 1.9-.84 3.421-2.561 11.174-2.563 11.178a.99.99 0 0 0 .197.839.99.99 0 0 0 .778.376H22.77a.996.996 0 0 0 .973-1.215c0-.004-1.722-7.757-2.562-11.179" clip-rule="evenodd"/></svg>