<svg xmlns="http://www.w3.org/2000/svg" width="32" height="32" fill="none"><path fill="#333" fill-rule="evenodd" d="M24.286 22.266h3.451v-7.664h-3.451zM7.729 27.934h14.49v-2.573H7.728zM4.266 7.563a2.27 2.27 0 0 1 2.272-2.275c.141 0 .282.018.417.045a2.27 2.27 0 0 1 2.03-1.267 2.27 2.27 0 0 1 2.094 1.396c.27-.109.564-.174.876-.174.028 0 .055.006.085.01a2.26 2.26 0 0 1 2.01-1.232c.945 0 1.752.577 2.093 1.396.272-.109.567-.174.877-.174.368 0 .712.1 1.02.253a2.27 2.27 0 0 1 2.122-1.475c.946 0 1.753.577 2.096 1.396a2.27 2.27 0 0 1 3.145 2.1 2.27 2.27 0 0 1-2.27 2.27 2.27 2.27 0 0 1-2.097-1.4 2.3 2.3 0 0 1-.874.173c-.371 0-.713-.094-1.023-.254a2.27 2.27 0 0 1-2.119 1.48 2.27 2.27 0 0 1-2.097-1.399q-.407.171-.873.173c-.032 0-.058-.006-.085-.008a2.27 2.27 0 0 1-2.01 1.235 2.27 2.27 0 0 1-2.098-1.4 2.25 2.25 0 0 1-1.295.134 2.26 2.26 0 0 1-2.024 1.266 2.27 2.27 0 0 1-2.272-2.27m3.463 4.153a4.25 4.25 0 0 0 1.513-.767c.753.602 1.703.949 2.713.949.924 0 1.802-.294 2.525-.819a4.34 4.34 0 0 0 2.54.819c1.14 0 2.214-.46 3.01-1.229q.038.003.078.002c.58.564 1.31.952 2.11 1.123v11.503H7.728zM29.5 12.84a1.05 1.05 0 0 0-.729-.303h-4.486v-.814c1.83-.508 3.183-2.171 3.183-4.16a4.344 4.344 0 0 0-4.287-4.34A4.33 4.33 0 0 0 20.162 2c-1.14 0-2.215.458-3.01 1.225q-.04 0-.082-.003a4.334 4.334 0 0 0-5.548-.405A4.33 4.33 0 0 0 8.984 2c-1.17 0-2.259.466-3.058 1.267A4.344 4.344 0 0 0 2.2 7.563a4.34 4.34 0 0 0 3.462 4.244v17.16c0 .273.112.536.304.73.194.19.459.303.73.303h16.556c.272 0 .538-.112.73-.303.191-.194.304-.457.304-.73v-4.634l4.486-.003a1.027 1.027 0 0 0 1.033-1.031v-9.73c0-.268-.112-.537-.304-.729" clip-rule="evenodd"/></svg>