<svg xmlns="http://www.w3.org/2000/svg" width="32" height="32" fill="none"><path fill="#333" fill-rule="evenodd" d="M16.003 18.557A2.56 2.56 0 0 1 13.446 16a2.56 2.56 0 0 1 2.557-2.554A2.557 2.557 0 0 1 18.554 16a2.56 2.56 0 0 1-2.551 2.557m0-6.634A4.08 4.08 0 0 0 11.919 16a4.08 4.08 0 0 0 8.162 0 4.08 4.08 0 0 0-4.078-4.077m0 16.046a12 12 0 0 1-4.301-.815l2.01-4.388a7.1 7.1 0 0 0 2.29.383A7.15 7.15 0 0 0 23.149 16a7.1 7.1 0 0 0-1.595-4.493l3.41-3.41A11.93 11.93 0 0 1 27.968 16c-.013 6.61-5.36 11.955-11.966 11.969m-8.197-3.275 3.51-3.306q.473.412 1.015.735l-2.016 4.401a12 12 0 0 1-2.51-1.83M4.034 16c.011-6.61 5.36-11.954 11.97-11.966 1.374.002 2.688.248 3.919.676l-1.88 4.445A7.146 7.146 0 0 0 8.856 16c0 1.603.535 3.077 1.425 4.27l-3.524 3.318A11.94 11.94 0 0 1 4.034 16m17.08 0a5.12 5.12 0 0 1-5.111 5.113A5.12 5.12 0 0 1 10.888 16a5.12 5.12 0 0 1 5.115-5.112A5.12 5.12 0 0 1 21.113 16m2.768-8.98-3.411 3.411a7 7 0 0 0-1.02-.687L21.325 5.3c.927.463 1.785 1.04 2.556 1.719M16.003 2C8.27 2.002 2 8.267 2 16c0 7.734 6.27 14 14.003 14 7.729 0 13.999-6.266 14-14-.002-7.733-6.271-13.998-14-14" clip-rule="evenodd"/></svg>