<svg xmlns="http://www.w3.org/2000/svg" width="32" height="32" fill="none"><path fill="#333" fill-rule="evenodd" d="M5.647 27.983h20.71V15.275H5.646zm7.02-20.444h6.669V4.013h-6.67zm16.518.295a1 1 0 0 0-.713-.296h-7.12l-.002-4.531A1 1 0 0 0 20.343 2h-8.682a1.02 1.02 0 0 0-.714.296 1.02 1.02 0 0 0-.295.711v4.531H3.529A1.01 1.01 0 0 0 2.52 8.545v5.723c0 .265.109.525.296.714.188.186.448.293.713.293h.102v13.719c0 .262.107.521.294.71.188.186.448.296.713.296h22.726a1 1 0 0 0 .711-.297 1 1 0 0 0 .296-.71V15.276h.101a1.002 1.002 0 0 0 1.008-1.007V8.545a1 1 0 0 0-.295-.71m-16.468 14.85h2.1v2.098a.406.406 0 0 0 .413.41h1.544a.404.404 0 0 0 .41-.409v-2.1h2.102c.11 0 .212-.043.291-.12a.4.4 0 0 0 .12-.288v-1.55a.408.408 0 0 0-.41-.406h-2.104v-2.1a.403.403 0 0 0-.409-.41H15.23a.41.41 0 0 0-.413.41v2.1h-2.1a.43.43 0 0 0-.291.118.42.42 0 0 0-.12.288v1.55a.414.414 0 0 0 .41.409" clip-rule="evenodd"/></svg>