<svg xmlns="http://www.w3.org/2000/svg" width="32" height="32" fill="none"><path fill="#333" d="m29.494 7.14-5.877-2.685c0-.307-.153-.69-.458-.844l-2.367-1.458c-.076-.076-.152-.076-.305-.076h-.076C20.334 2 20.18 2 20.105 2h-8.167c-.23 0-.382.077-.535.153-.076 0-.076 0-.152.077L8.96 3.688a.84.84 0 0 0-.458.767L2.625 7.216c-.458.154-.687.614-.61 1.074l.992 7.211q.114.46.458.69c.229.154.534.23.84.154l2.747-.844v13.502c0 .307.077.537.306.69.152.154.458.307.687.307h15.8c.306 0 .535-.077.688-.307.229-.23.305-.46.305-.69V15.5l2.824.768c.306.076.61 0 .84-.154q.344-.23.458-.69l.992-7.211c.153-.384-.076-.844-.458-1.074m-9.236-2.302.458.537.229.154-1.908 4.066-1.222-1.228zm-9.007.537.534-.613 2.443 3.605-1.222 1.228-1.908-4.143zm-6.336 8.592-.763-5.216.687-.307.763 5.37zM14.991 27.93H9.113V14.12c0-.307-.152-.614-.381-.844a.86.86 0 0 0-.61-.23c-.077 0-.23 0-.306.076l-.764.23-.763-5.6 2.977-1.38 2.519 5.446c.153.307.458.537.763.537h.153c.305 0 .534-.076.687-.307l1.603-1.61zM13.693 4.07h4.657L16.06 7.37zm11.221 9.282-.763-.23c-.305-.076-.61 0-.916.154-.23.23-.382.46-.382.844v13.731h-5.877V10.438l1.603 1.611c.229.23.458.307.687.307h.152a1.4 1.4 0 0 0 .764-.537L22.7 6.45l2.9 1.304zm2.29.614-.763-.23.763-5.37.763.307zm-5.572-.767h-3.206a.7.7 0 0 0-.534.23.7.7 0 0 0-.23.537v3.222c0 .23.153.537.382.614l1.603.997c.153.077.306.153.382.153.153 0 .305 0 .382-.076l1.679-.997a.81.81 0 0 0 .382-.691v-3.222a.7.7 0 0 0-.23-.537c-.228-.153-.381-.23-.61-.23m-.763 3.529-.84.537-.84-.537v-2.071h1.68z"/></svg>