<svg xmlns="http://www.w3.org/2000/svg" width="32" height="32" fill="none"><path fill="#333" fill-rule="evenodd" d="M8.695 23.311c.26.265.36.646.257 1.003q-.112.392-.113.796c.001.736.27 1.447.831 2.008a2.864 2.864 0 0 0 4.887-2.015 2.9 2.9 0 0 0-.758-1.943l.754-.69.722.723-.722-.723-.754.69a1.02 1.02 0 0 1 .03-1.411l7.919-7.92a1.023 1.023 0 0 1 1.413-.03c.55.503 1.242.754 1.943.756a2.85 2.85 0 0 0 2.014-.834 2.87 2.87 0 0 0 .84-2.029 2.85 2.85 0 0 0-.84-2.025 2.8 2.8 0 0 0-2.008-.83c-.27 0-.537.038-.79.11a1.019 1.019 0 0 1-1.271-1.256c.075-.26.11-.534.11-.806a2.8 2.8 0 0 0-.825-2.001 2.85 2.85 0 0 0-2.029-.842 2.85 2.85 0 0 0-2.026.842 2.85 2.85 0 0 0-.077 3.953 1.02 1.02 0 0 1-.031 1.414l-7.917 7.917c-.387.385-1.011.4-1.414.033a2.86 2.86 0 0 0-1.943-.758 2.82 2.82 0 0 0-2.015.836 2.86 2.86 0 0 0-.838 2.025c.002.736.276 1.464.841 2.03a2.8 2.8 0 0 0 2.003.826q.4-.001.81-.114.136-.037.272-.039c.269 0 .533.108.725.304m3 6.689a4.89 4.89 0 0 1-3.472-1.44 4.86 4.86 0 0 1-1.428-3.36 4.86 4.86 0 0 1-3.357-1.422A4.9 4.9 0 0 1 2 20.304a4.9 4.9 0 0 1 1.437-3.47 4.86 4.86 0 0 1 3.46-1.434 4.9 4.9 0 0 1 2.532.701l6.675-6.673a4.904 4.904 0 0 1 .727-5.988A4.9 4.9 0 0 1 20.305 2a4.9 4.9 0 0 1 3.474 1.437A4.86 4.86 0 0 1 25.2 6.795a4.85 4.85 0 0 1 3.362 1.426A4.9 4.9 0 0 1 30 11.692a4.9 4.9 0 0 1-1.44 3.476 4.9 4.9 0 0 1-3.456 1.429 4.93 4.93 0 0 1-2.53-.698l-6.677 6.672c.466.776.702 1.655.702 2.532a4.86 4.86 0 0 1-1.433 3.457A4.9 4.9 0 0 1 11.703 30z" clip-rule="evenodd"/></svg>