<svg xmlns="http://www.w3.org/2000/svg" width="32" height="32" fill="none"><path fill="#333" fill-rule="evenodd" d="M6.721 7.613c.254.214.388.54.362.87l-1.624 19.47h7.463L11.298 8.485c-.028-.33.107-.656.36-.87.947-.786 1.702-2.052 2.03-3.573H4.694c.33 1.52 1.084 2.785 2.027 3.572M4.35 29.996a1.03 1.03 0 0 1-.751-.33 1.03 1.03 0 0 1-.266-.776L5.007 8.81c-1.42-1.396-2.332-3.427-2.504-5.713A1.022 1.022 0 0 1 3.522 2h11.34c.284 0 .555.12.749.326.192.21.29.486.269.772-.173 2.286-1.086 4.319-2.506 5.715l1.675 20.077a1.03 1.03 0 0 1-.268.775c-.19.21-.464.33-.748.33zm14.114-6.535a4.503 4.503 0 0 0 4.497 4.494 4.5 4.5 0 0 0 4.496-4.494 4.46 4.46 0 0 0-.58-2.2h-7.834a4.43 4.43 0 0 0-.579 2.2m-2.039 0a6.5 6.5 0 0 1 1.234-3.814c.19-.269.5-.424.828-.424h8.946c.329 0 .638.16.829.424a6.52 6.52 0 0 1 1.236 3.814A6.54 6.54 0 0 1 22.96 30a6.54 6.54 0 0 1-6.536-6.54" clip-rule="evenodd"/></svg>