<svg xmlns="http://www.w3.org/2000/svg" width="32" height="32" fill="none"><path fill="#333" fill-rule="evenodd" d="M17.004 21.791h2.553v-2.552h-2.553zm-4.562 0h2.552v-2.552h-2.552zm-.001-4.56h2.553v-2.552H12.44zm4.562 0h2.553v-2.552h-2.553zm3.558-4.512h-9.124c-.555 0-1.004.45-1.004 1.004v9.12c0 .554.45 1.003 1.004 1.003h9.124c.555 0 1.003-.449 1.003-1.004v-9.119c0-.554-.448-1.004-1.003-1.004M7.567 27.392h16.908v-13.68c0-.555.45-1.003 1.006-1.003h.69l-1.326-1.08-.049-.043-.03-.023L16 4.424l-3.76 3.061a1.005 1.005 0 0 1-1.639-.777v-2.7h-1.34v5.059c.123.39.037.815-.28 1.074l-1.747 1.422q-.004.003-.008.006l-.029.025-1.37 1.115h.736c.555 0 1.004.448 1.004 1.003zM25.481 29.4H6.563a1 1 0 0 1-1.004-1.002V14.715H3.005a1.003 1.003 0 0 1-.636-1.782l3.45-2.809q.118-.132.268-.218l1.166-.95V3.003C7.253 2.45 7.703 2 8.257 2h3.349c.554 0 1.004.449 1.004 1.003v1.592l2.755-2.245c.369-.3.898-.3 1.27 0l9.287 7.564c.133.07.251.167.345.282l3.362 2.738a1.003 1.003 0 0 1-.633 1.783h-2.51v13.68c0 .555-.45 1.003-1.005 1.003" clip-rule="evenodd"/></svg>