<svg xmlns="http://www.w3.org/2000/svg" width="32" height="32" fill="none"><path fill="#333" fill-rule="evenodd" d="M4.007 23.703H27.84v-1.235H4.007zm.916-5.45c.481-.691 1.044-1.139 2.015-1.236l.057.048c.59.518 1.672 1.709 1.895 3.366l-4.793-.007c.13-.663.389-1.516.826-2.17M19.761 8.113c.347.073.74.159 1.16.255-.2.417-.52.987-.83 1.462-.49.777-.954 1.421-.954 1.424-.22.306-.249.707-.08 1.043.172.332.515.544.891.547l7.71.016c.14.89.337 2.323.333 3.334 0 2.13-.04 3.481-.075 4.266h-.322l-16.687-.024c-.16-1.623-.842-2.878-1.527-3.757.63-.16 1.252-.385 1.86-.653.062.071.12.145.203.199l2.703 1.757a1.004 1.004 0 1 0 1.095-1.681l-2.04-1.327q.707-.451 1.353-.96l3.388 2.01a1.004 1.004 0 0 0 1.026-1.727l-2.844-1.687c.429-.438.82-.884 1.154-1.325.271-.367 1.766-2.264 2.483-3.172M30 16.192c-.006-1.894-.506-4.49-.509-4.519a1 1 0 0 0-.985-.817l-6.681-.015.068-.11c.56-.976 1.165-1.807 1.243-2.88.07-.318-.283-1.136-.943-1.248a71 71 0 0 0-2.638-.583 1 1 0 0 0-.986.363c-.008.007-2.48 3.134-2.905 3.708-1.63 2.28-5.591 4.938-8.428 4.879-2.56-.014-4.012 1.817-4.6 3.35C2.003 19.88 2 21.66 2 21.66v3.048c0 .265.106.524.293.71.187.188.446.294.71.294h25.842a1 1 0 0 0 1.004-1.004s.15-4.601.151-8.514" clip-rule="evenodd"/></svg>