<svg xmlns="http://www.w3.org/2000/svg" width="32" height="32" fill="none"><path fill="#333" fill-rule="evenodd" d="M7.255 27.963h17.47l-.003-23.925H7.255zm18.487 1.019v-1.019zM6.238 30a1.02 1.02 0 0 1-1.018-1.018V3.02A1.024 1.024 0 0 1 6.238 2h19.504a1.02 1.02 0 0 1 1.018 1.02v25.962A1.02 1.02 0 0 1 25.742 30zM21.48 9.63a.865.865 0 0 1-.861.863h-1.064a.865.865 0 0 1-.862-.864V8.567c0-.473.389-.861.862-.861h1.064c.474 0 .861.388.861.861zm-4.097 0a.864.864 0 0 1-.861.863h-1.063a.864.864 0 0 1-.86-.864V8.567c0-.473.386-.861.86-.861h1.063c.474 0 .86.388.86.861zm0 3.968a.864.864 0 0 1-.861.864h-1.063a.864.864 0 0 1-.86-.864v-1.06c0-.476.386-.863.86-.863h1.063c.474 0 .86.387.86.862zM13.288 9.63a.865.865 0 0 1-.861.864h-1.063a.865.865 0 0 1-.862-.864V8.567c0-.473.388-.861.862-.861h1.063c.473 0 .861.388.861.861zm0 3.97a.865.865 0 0 1-.861.863h-1.063a.865.865 0 0 1-.862-.864v-1.06c0-.476.388-.863.862-.863h1.063c.473 0 .861.387.861.862zm8.51-7.497c.474 0 .863.39.863.862v15.71a.865.865 0 0 1-.862.863H10.267a.865.865 0 0 1-.861-.862V6.965c0-.473.388-.863.861-.863zM17.105 25.82a1.432 1.432 0 1 1-2.866 0 1.432 1.432 0 1 1 2.866 0" clip-rule="evenodd"/></svg>