<svg xmlns="http://www.w3.org/2000/svg" width="32" height="32" fill="none"><path fill="#333" fill-rule="evenodd" d="m25.767 19.721-4.588-1.624-.309-5.438 3.26-2.47 3.065.544q.23.481.416.981l.671 5.868c-.035.278-.094.549-.147.817zm-7.136 8.367-1.699-.252-2.326-3.283 1.25-3.68 4.126-1.607 5.254 1.86-1.116 4.064s-1.38 1.992-5.49 2.898M6.12 23.453l-1.094-1.727a12.5 12.5 0 0 1-.672-1.544l1.779-3.893 5.253.398 3.034 3.708-1.31 3.952L9.454 26.5a12.6 12.6 0 0 1-3.333-3.046m3.97-17.395 2.392.753 1.348 4.675-2.377 3.7-5.353-.405-1.603-2.853c.075-.15 1.803-4.444 5.593-5.87m13.118.495.277 2.235-4.014 3.045-4.296-1.131-1.234-4.288 1.93-2.594c1.622.023 4.306.493 7.337 2.733m-6.817-4.548C8.678 1.791 2.222 7.895 2.006 15.61c-.217 7.718 5.885 14.172 13.6 14.384 7.716.216 14.172-5.888 14.388-13.606.216-7.714-5.885-14.167-13.602-14.383" clip-rule="evenodd"/></svg>