<svg xmlns="http://www.w3.org/2000/svg" width="32" height="32" fill="none"><path fill="#333" fill-rule="evenodd" d="M4.042 25.035h23.914v-3.09H4.042zm3.837-17.98.985 3.934-1.754.001-2.124-2.532zm2.295 5.976a1.009 1.009 0 0 0 1.014-.974c.767.647 1.76.987 2.846.987 1.237 0 2.351-.438 3.15-1.27l6.031 2.206H5.73l1.078-.947zM4.042 18.88h23.914V16.02H4.042zm25.657-4.6a1 1 0 0 0-.374-.23l.003-.01-11.123-4.067c.145-.499.228-1.053.228-1.664 0-3.052-2.93-6.309-4.399-6.309-1.206 0-3.4 2.206-4.141 4.687l-.338-1.346a1.03 1.03 0 0 0-1.436-.673l-5.2 2.525a1.022 1.022 0 0 0-.337 1.575l2.54 3.027-2.774 2.437.008.01c-.017.014-.04.021-.056.038-.189.189-.3.452-.3.718v11.058c0 .27.111.533.3.725.19.187.451.298.722.298h25.957c.267 0 .532-.111.72-.298a1.03 1.03 0 0 0 .301-.725V14.998c0-.266-.11-.53-.301-.718" clip-rule="evenodd"/></svg>