<svg xmlns="http://www.w3.org/2000/svg" width="32" height="32" fill="none"><path fill="#333" fill-rule="evenodd" d="M27.758 20.919c-2.608 3.423-6.996 6.41-11.742 6.406-4.76.004-9.167-2.999-11.777-6.455a1.04 1.04 0 0 1-.204-.632c0-.302.121-.58.307-.743a.64.64 0 0 1 .448-.187c.186.003.379.079.553.303 2.133 2.853 6.069 4.864 10.622 4.876h.081c4.323-.007 8.09-1.814 10.296-4.438h.018l.305-.404c.168-.218.362-.293.55-.297.147.001.294.05.447.187.185.165.304.443.304.745 0 .232-.074.46-.208.639m-8.909 1.226a12.8 12.8 0 0 1-2.852.308h-.02c-.869.001-1.704-.099-2.508-.259l.815-3.84h3.657zm-8.615-9.81-.043-.16-.841-2.43a1.03 1.03 0 0 0-.536-.591 1.05 1.05 0 0 0-.798-.021l-2.428.951-.98-1.52 4.92-4.242c1.087.888 3.147 3.001 3.329 5.754.042.528.485.94 1.016.94 1.876 0 7.646.038 11.123.062l-3.707 3.143c-.291.246-.42.634-.333 1.003l1.288 5.598c-.453.264-.94.496-1.453.703L19.732 17.1a1.016 1.016 0 0 0-.987-.781H13.46c-.479 0-.897.337-.994.805l-.96 4.51a11.5 11.5 0 0 1-1.722-.814l1.088-4.24.018-.424zm18.802 5.7a2.68 2.68 0 0 0-1.821-.72 2.7 2.7 0 0 0-1.804.7s-1.007 1.147-1.382 1.496l-.952-4.138 5.327-4.519c.325-.276.446-.72.298-1.121a1.01 1.01 0 0 0-.95-.671s-9.285-.068-12.994-.08c-.848-4.378-4.658-6.747-4.721-6.819a1.01 1.01 0 0 0-1.217.086L2.61 7.605a1.02 1.02 0 0 0-.19 1.322l1.91 2.961c.261.406.773.571 1.225.394l2.218-.87.468 1.348.607 3.528-.83 3.236A8.5 8.5 0 0 1 6.97 18.39c-.536-.716-1.352-1.12-2.181-1.118-.65 0-1.305.246-1.814.714-.66.596-.976 1.432-.976 2.252 0 .64.196 1.3.61 1.852l.003.004c2.916 3.838 7.77 7.234 13.403 7.265 5.614-.03 10.45-3.409 13.365-7.214.422-.56.619-1.219.619-1.865 0-.815-.31-1.646-.964-2.244" clip-rule="evenodd"/></svg>