<svg xmlns="http://www.w3.org/2000/svg" width="32" height="32" fill="none"><path fill="#333" fill-rule="evenodd" d="m18.764 12.474-3.027 3.376-1.89-1.782a.76.76 0 1 0-1.042 1.104h-.002l2.457 2.32c.14.133.327.206.52.206l.033-.001a.76.76 0 0 0 .533-.25l3.547-3.959a.759.759 0 1 0-1.129-1.014m6.125 4.508a.917.917 0 1 1 .001-1.834.917.917 0 0 1-.001 1.834m-8.898 6.475c-4.111 0-7.453-3.343-7.453-7.45 0-4.112 3.342-7.454 7.453-7.454 4.109 0 7.452 3.342 7.452 7.453 0 4.108-3.343 7.451-7.452 7.451m-.918 1.421a.917.917 0 1 1 1.834 0 .917.917 0 0 1-1.834 0m3.395 2.53a.69.69 0 0 1-.661.567h-3.633a.69.69 0 0 1-.663-.567l-.118-.774a.47.47 0 0 1 .154-.437c.785.189 1.6.298 2.444.298.842 0 1.657-.11 2.44-.298a.48.48 0 0 1 .157.437zM7.063 16.95a.917.917 0 1 1 0-1.834.916.916 0 1 1 0 1.834m9.807-9.929a.918.918 0 1 1-1.837 0 .918.918 0 0 1 1.837 0m-3.358-2.429a.69.69 0 0 1 .662-.567h3.633a.69.69 0 0 1 .661.567l.12.772a.48.48 0 0 1-.167.444 10.5 10.5 0 0 0-2.43-.293c-.839 0-1.65.108-2.434.294a.47.47 0 0 1-.164-.445zm7.331 2.118-.637-4.143A.69.69 0 0 0 19.543 2h-7.106a.694.694 0 0 0-.663.567l-.639 4.143C7.788 8.464 5.5 11.965 5.5 16.006s2.288 7.542 5.637 9.294l.638 4.133a.69.69 0 0 0 .662.567h7.106a.69.69 0 0 0 .663-.567l.636-4.132c3.35-1.752 5.639-5.253 5.639-9.295s-2.288-7.544-5.638-9.296" clip-rule="evenodd"/></svg>