<svg xmlns="http://www.w3.org/2000/svg" width="32" height="32" fill="none"><path fill="#333" fill-rule="evenodd" d="M5.022 27.979h8.086v-3.533H5.022zM7.781 13.63c.174-.186.273-.433.273-.689v-8.92h2.021v8.92c0 .256.098.503.274.69l2.758 2.937v2.486H5.022v-2.486zm7.074 1.85-2.758-2.942V3.01c0-.267-.108-.53-.297-.72A1.03 1.03 0 0 0 11.086 2H7.043c-.267 0-.525.106-.714.291a1.03 1.03 0 0 0-.296.72v9.528l-2.758 2.94A1 1 0 0 0 3 16.17v12.82A1.01 1.01 0 0 0 4.01 30h10.108c.27 0 .524-.102.714-.295a1 1 0 0 0 .297-.714V16.17a1 1 0 0 0-.274-.69m3.367-.808c0-.725.164-1.405.458-2.02h8.516c.294.615.458 1.295.458 2.02a4.72 4.72 0 0 1-4.717 4.716 4.72 4.72 0 0 1-4.715-4.716m11.456 0a6.73 6.73 0 0 0-1.03-3.568 1.02 1.02 0 0 0-.86-.475h-9.704c-.348 0-.671.178-.857.475a6.7 6.7 0 0 0-1.027 3.568c0 3.377 2.488 6.167 5.728 6.654v6.482h-2.725a1.012 1.012 0 0 0 0 2.024h7.472a1.012 1.012 0 0 0 0-2.024H23.95v-6.482a6.74 6.74 0 0 0 5.728-6.654" clip-rule="evenodd"/></svg>